<svg width="64" height="64" viewBox="0 0 64 64" fill="none" xmlns="http://www.w3.org/2000/svg">
<mask id="path-2-inside-1_294_1615" fill="white">
<path d="M0 16C0 7.16344 7.16344 0 16 0H48C56.8366 0 64 7.16344 64 16V48C64 56.8366 56.8366 64 48 64H16C7.16344 64 0 56.8366 0 48V16Z"/>
</mask>
<path d="M16 0V1H48V0V-1H16V0ZM64 16H63V48H64H65V16H64ZM48 64V63H16V64V65H48V64ZM0 48H1V16H0H-1V48H0ZM16 64V63C7.71573 63 1 56.2843 1 48H0H-1C-1 57.3888 6.61116 65 16 65V64ZM64 48H63C63 56.2843 56.2843 63 48 63V64V65C57.3888 65 65 57.3888 65 48H64ZM48 0V1C56.2843 1 63 7.71573 63 16H64H65C65 6.61116 57.3888 -1 48 -1V0ZM16 0V-1C6.61116 -1 -1 6.61116 -1 16H0H1C1 7.71573 7.71573 1 16 1V0Z" fill="#5DD149" fill-opacity="0.4" mask="url(#path-2-inside-1_294_1615)"/>
<path d="M21.9987 37.9999C19.9987 39.6799 19.332 44.6666 19.332 44.6666C19.332 44.6666 24.3187 43.9999 25.9987 41.9999C26.9454 40.8799 26.932 39.1599 25.8787 38.1199C25.3604 37.6253 24.6778 37.3395 23.9617 37.3173C23.2456 37.2952 22.5465 37.5383 21.9987 37.9999Z" stroke="#5DD149" stroke-width="2.66667" stroke-linecap="round" stroke-linejoin="round"/>
<path d="M32 35.9999L28 31.9999C28.7095 30.1592 29.6029 28.3947 30.6667 26.7333C32.2202 24.2492 34.3835 22.204 36.9507 20.792C39.5178 19.3801 42.4036 18.6484 45.3333 18.6666C45.3333 22.2933 44.2933 28.6666 37.3333 33.3333C35.6492 34.3982 33.8625 35.2916 32 35.9999Z" stroke="#5DD149" stroke-width="2.66667" stroke-linecap="round" stroke-linejoin="round"/>
<path d="M27.9987 32.0002H21.332C21.332 32.0002 22.0654 27.9602 23.9987 26.6669C26.1587 25.2269 30.6654 26.6669 30.6654 26.6669" stroke="#5DD149" stroke-width="2.66667" stroke-linecap="round" stroke-linejoin="round"/>
<path d="M32 35.9999V42.6666C32 42.6666 36.04 41.9333 37.3333 39.9999C38.7733 37.8399 37.3333 33.3333 37.3333 33.3333" stroke="#5DD149" stroke-width="2.66667" stroke-linecap="round" stroke-linejoin="round"/>
</svg>
