<svg width="64" height="64" viewBox="0 0 64 64" fill="none" xmlns="http://www.w3.org/2000/svg">
<mask id="path-1-inside-1_1854_4512" fill="white">
<path d="M0 16C0 7.16344 7.16344 0 16 0H48C56.8366 0 64 7.16344 64 16V48C64 56.8366 56.8366 64 48 64H16C7.16344 64 0 56.8366 0 48V16Z"/>
</mask>
<path d="M0 16C0 7.16344 7.16344 0 16 0H48C56.8366 0 64 7.16344 64 16V48C64 56.8366 56.8366 64 48 64H16C7.16344 64 0 56.8366 0 48V16Z" fill="url(#paint0_linear_1854_4512)"/>
<path d="M16 0V1H48V0V-1H16V0ZM64 16H63V48H64H65V16H64ZM48 64V63H16V64V65H48V64ZM0 48H1V16H0H-1V48H0ZM16 64V63C7.71573 63 1 56.2843 1 48H0H-1C-1 57.3888 6.61116 65 16 65V64ZM64 48H63C63 56.2843 56.2843 63 48 63V64V65C57.3888 65 65 57.3888 65 48H64ZM48 0V1C56.2843 1 63 7.71573 63 16H64H65C65 6.61116 57.3888 -1 48 -1V0ZM16 0V-1C6.61116 -1 -1 6.61116 -1 16H0H1C1 7.71573 7.71573 1 16 1V0Z" fill="#5DD149" fill-opacity="0.4" mask="url(#path-1-inside-1_1854_4512)"/>
<path d="M27.9974 38.6654H25.3307C23.5626 38.6654 21.8669 37.963 20.6167 36.7127C19.3664 35.4625 18.6641 33.7668 18.6641 31.9987C18.6641 30.2306 19.3664 28.5349 20.6167 27.2847C21.8669 26.0344 23.5626 25.332 25.3307 25.332H27.9974" stroke="#5DD149" stroke-width="2.66667" stroke-linecap="round" stroke-linejoin="round"/>
<path d="M36 25.332H38.6667C40.4348 25.332 42.1305 26.0344 43.3807 27.2847C44.631 28.5349 45.3333 30.2306 45.3333 31.9987C45.3333 33.7668 44.631 35.4625 43.3807 36.7127C42.1305 37.963 40.4348 38.6654 38.6667 38.6654H36" stroke="#5DD149" stroke-width="2.66667" stroke-linecap="round" stroke-linejoin="round"/>
<path d="M26.6641 32H37.3307" stroke="#5DD149" stroke-width="2.66667" stroke-linecap="round" stroke-linejoin="round"/>
<defs>
<linearGradient id="paint0_linear_1854_4512" x1="0" y1="0" x2="64" y2="64" gradientUnits="userSpaceOnUse">
<stop stop-color="#5DD149" stop-opacity="0.2"/>
<stop offset="1" stop-color="#5DD149" stop-opacity="0.05"/>
</linearGradient>
</defs>
</svg>
