<svg width="64" height="64" viewBox="0 0 64 64" fill="none" xmlns="http://www.w3.org/2000/svg">
<mask id="path-1-inside-1_1854_4478" fill="white">
<path d="M0 16C0 7.16344 7.16344 0 16 0H48C56.8366 0 64 7.16344 64 16V48C64 56.8366 56.8366 64 48 64H16C7.16344 64 0 56.8366 0 48V16Z"/>
</mask>
<path d="M0 16C0 7.16344 7.16344 0 16 0H48C56.8366 0 64 7.16344 64 16V48C64 56.8366 56.8366 64 48 64H16C7.16344 64 0 56.8366 0 48V16Z" fill="url(#paint0_linear_1854_4478)"/>
<path d="M16 0V1H48V0V-1H16V0ZM64 16H63V48H64H65V16H64ZM48 64V63H16V64V65H48V64ZM0 48H1V16H0H-1V48H0ZM16 64V63C7.71573 63 1 56.2843 1 48H0H-1C-1 57.3888 6.61116 65 16 65V64ZM64 48H63C63 56.2843 56.2843 63 48 63V64V65C57.3888 65 65 57.3888 65 48H64ZM48 0V1C56.2843 1 63 7.71573 63 16H64H65C65 6.61116 57.3888 -1 48 -1V0ZM16 0V-1C6.61116 -1 -1 6.61116 -1 16H0H1C1 7.71573 7.71573 1 16 1V0Z" fill="#5DD149" fill-opacity="0.4" mask="url(#path-1-inside-1_1854_4478)"/>
<path d="M41.3333 25.3333V21.3333C41.3333 20.9797 41.1929 20.6406 40.9428 20.3905C40.6928 20.1405 40.3536 20 40 20H22.6667C21.9594 20 21.2811 20.281 20.781 20.781C20.281 21.2811 20 21.9594 20 22.6667C20 23.3739 20.281 24.0522 20.781 24.5523C21.2811 25.0524 21.9594 25.3333 22.6667 25.3333H42.6667C43.0203 25.3333 43.3594 25.4738 43.6095 25.7239C43.8595 25.9739 44 26.313 44 26.6667V32M44 32H40C39.2928 32 38.6145 32.281 38.1144 32.781C37.6143 33.2811 37.3333 33.9594 37.3333 34.6667C37.3333 35.3739 37.6143 36.0522 38.1144 36.5523C38.6145 37.0524 39.2928 37.3333 40 37.3333H44C44.3536 37.3333 44.6928 37.1929 44.9428 36.9428C45.1929 36.6928 45.3333 36.3536 45.3333 36V33.3333C45.3333 32.9797 45.1929 32.6406 44.9428 32.3905C44.6928 32.1405 44.3536 32 44 32Z" stroke="#5DD149" stroke-width="2.66667" stroke-linecap="round" stroke-linejoin="round"/>
<path d="M20 22.668V41.3346C20 42.0419 20.281 42.7202 20.781 43.2203C21.2811 43.7204 21.9594 44.0013 22.6667 44.0013H42.6667C43.0203 44.0013 43.3594 43.8608 43.6095 43.6108C43.8595 43.3607 44 43.0216 44 42.668V37.3346" stroke="#5DD149" stroke-width="2.66667" stroke-linecap="round" stroke-linejoin="round"/>
<defs>
<linearGradient id="paint0_linear_1854_4478" x1="0" y1="0" x2="64" y2="64" gradientUnits="userSpaceOnUse">
<stop stop-color="#5DD149" stop-opacity="0.2"/>
<stop offset="1" stop-color="#5DD149" stop-opacity="0.05"/>
</linearGradient>
</defs>
</svg>
