<svg width="64" height="64" viewBox="0 0 64 64" fill="none" xmlns="http://www.w3.org/2000/svg">
<mask id="path-2-inside-1_294_1573" fill="white">
<path d="M0 16C0 7.16344 7.16344 0 16 0H48C56.8366 0 64 7.16344 64 16V48C64 56.8366 56.8366 64 48 64H16C7.16344 64 0 56.8366 0 48V16Z"/>
</mask>
<path d="M16 0V1H48V0V-1H16V0ZM64 16H63V48H64H65V16H64ZM48 64V63H16V64V65H48V64ZM0 48H1V16H0H-1V48H0ZM16 64V63C7.71573 63 1 56.2843 1 48H0H-1C-1 57.3888 6.61116 65 16 65V64ZM64 48H63C63 56.2843 56.2843 63 48 63V64V65C57.3888 65 65 57.3888 65 48H64ZM48 0V1C56.2843 1 63 7.71573 63 16H64H65C65 6.61116 57.3888 -1 48 -1V0ZM16 0V-1C6.61116 -1 -1 6.61116 -1 16H0H1C1 7.71573 7.71573 1 16 1V0Z" fill="#5DD149" fill-opacity="0.4" mask="url(#path-2-inside-1_294_1573)"/>
<path d="M26.6641 34.668C31.0823 34.668 34.6641 31.0862 34.6641 26.668C34.6641 22.2497 31.0823 18.668 26.6641 18.668C22.2458 18.668 18.6641 22.2497 18.6641 26.668C18.6641 31.0862 22.2458 34.668 26.6641 34.668Z" stroke="#5DD149" stroke-width="2.66667" stroke-linecap="round" stroke-linejoin="round"/>
<path d="M40.1224 29.8281C41.3828 30.298 42.5044 31.0782 43.3834 32.0964C44.2624 33.1146 44.8705 34.338 45.1514 35.6535C45.4323 36.9691 45.3769 38.3341 44.9905 39.6226C44.604 40.911 43.8989 42.0812 42.9403 43.0249C41.9817 43.9687 40.8007 44.6554 39.5064 45.0218C38.2121 45.3881 36.8463 45.4221 35.5353 45.1207C34.2243 44.8193 33.0106 44.1923 32.0062 43.2975C31.0018 42.4027 30.2392 41.269 29.7891 40.0015" stroke="#5DD149" stroke-width="2.66667" stroke-linecap="round" stroke-linejoin="round"/>
<path d="M25.3359 24H26.6693V29.3333" stroke="#5DD149" stroke-width="2.66667" stroke-linecap="round" stroke-linejoin="round"/>
<path d="M38.2798 34.5078L39.2131 35.4545L35.4531 39.2145" stroke="#5DD149" stroke-width="2.66667" stroke-linecap="round" stroke-linejoin="round"/>
</svg>
