<svg width="40" height="40" viewBox="0 0 40 40" fill="none" xmlns="http://www.w3.org/2000/svg">
<path d="M26.6693 35V31.6667C26.6693 29.8986 25.9669 28.2029 24.7167 26.9526C23.4664 25.7024 21.7707 25 20.0026 25H10.0026C8.23449 25 6.5388 25.7024 5.28856 26.9526C4.03832 28.2029 3.33594 29.8986 3.33594 31.6667V35" stroke="#5DD149" stroke-width="3.33333" stroke-linecap="round" stroke-linejoin="round"/>
<path d="M26.6641 5.21289C28.0937 5.58351 29.3597 6.41833 30.2635 7.58633C31.1673 8.75433 31.6577 10.1894 31.6577 11.6662C31.6577 13.1431 31.1673 14.5781 30.2635 15.7461C29.3597 16.9141 28.0937 17.7489 26.6641 18.1196" stroke="#5DD149" stroke-width="3.33333" stroke-linecap="round" stroke-linejoin="round"/>
<path d="M36.6641 35.0001V31.6668C36.663 30.1897 36.1713 28.7548 35.2663 27.5873C34.3614 26.4199 33.0943 25.5861 31.6641 25.2168" stroke="#5DD149" stroke-width="3.33333" stroke-linecap="round" stroke-linejoin="round"/>
<path d="M15.0026 18.3333C18.6845 18.3333 21.6693 15.3486 21.6693 11.6667C21.6693 7.98477 18.6845 5 15.0026 5C11.3207 5 8.33594 7.98477 8.33594 11.6667C8.33594 15.3486 11.3207 18.3333 15.0026 18.3333Z" stroke="#5DD149" stroke-width="3.33333" stroke-linecap="round" stroke-linejoin="round"/>
</svg>
