<svg width="40" height="40" viewBox="0 0 40 40" fill="none" xmlns="http://www.w3.org/2000/svg">
<path d="M6.66454 23.3325C6.34915 23.3335 6.03992 23.2451 5.77279 23.0774C5.50566 22.9098 5.29159 22.6697 5.15545 22.3852C5.01931 22.1007 4.96669 21.7834 5.0037 21.4702C5.04071 21.157 5.16584 20.8607 5.36454 20.6158L21.8645 3.6158C21.9883 3.47293 22.157 3.37639 22.3428 3.34202C22.5287 3.30765 22.7207 3.33749 22.8874 3.42664C23.0541 3.51579 23.1855 3.65896 23.2601 3.83265C23.3347 4.00633 23.348 4.20021 23.2979 4.38247L20.0979 14.4158C20.0035 14.6683 19.9718 14.94 20.0055 15.2075C20.0392 15.475 20.1373 15.7303 20.2914 15.9515C20.4454 16.1728 20.6508 16.3533 20.89 16.4777C21.1292 16.6021 21.3949 16.6667 21.6645 16.6658H33.3312C33.6466 16.6647 33.9558 16.7532 34.2229 16.9208C34.4901 17.0885 34.7041 17.3285 34.8403 17.613C34.9764 17.8975 35.029 18.2148 34.992 18.528C34.955 18.8412 34.8299 19.1375 34.6312 19.3825L18.1312 36.3825C18.0074 36.5253 17.8388 36.6219 17.6529 36.6562C17.467 36.6906 17.275 36.6608 17.1083 36.5716C16.9416 36.4825 16.8102 36.3393 16.7356 36.1656C16.6611 35.9919 16.6477 35.7981 16.6979 35.6158L19.8979 25.5825C19.9922 25.3299 20.0239 25.0583 19.9902 24.7908C19.9565 24.5233 19.8584 24.268 19.7044 24.0468C19.5503 23.8255 19.3449 23.6449 19.1057 23.5205C18.8666 23.3961 18.6008 23.3316 18.3312 23.3325H6.66454Z" stroke="#5DD149" stroke-width="3.33333" stroke-linecap="round" stroke-linejoin="round"/>
</svg>
