<svg width="149" height="37" viewBox="0 0 149 37" fill="none" xmlns="http://www.w3.org/2000/svg">
<g clip-path="url(#clip0_294_1681)">
<path d="M34.0898 14.2553C40.8669 5.94875 47.6439 5.94875 54.4208 14.2553" stroke="white" stroke-width="2.53288" stroke-linecap="round"/>
<path d="M35.2108 11.8882H32.0481C31.5491 11.8882 31.1445 12.2939 31.1445 12.7944V20.0437C31.1445 20.5442 31.5491 20.9499 32.0481 20.9499H35.2108C35.7098 20.9499 36.1143 20.5442 36.1143 20.0437V12.7944C36.1143 12.2939 35.7098 11.8882 35.2108 11.8882Z" fill="white"/>
<path d="M57.3513 11.8882H54.1887C53.6897 11.8882 53.2852 12.2939 53.2852 12.7944V20.0437C53.2852 20.5442 53.6897 20.9499 54.1887 20.9499H57.3513C57.8503 20.9499 58.2549 20.5442 58.2549 20.0437V12.7944C58.2549 12.2939 57.8503 11.8882 57.3513 11.8882Z" fill="white"/>
<path d="M55.7848 20.9502C55.7848 24.7259 53.9777 27.3689 50.3633 28.8791" stroke="white" stroke-width="2.53288" stroke-linecap="round"/>
<path d="M50.8048 29.559C50.8048 28.8082 50.1979 28.1997 49.4494 28.1997C48.7008 28.1997 48.094 28.8082 48.094 29.559V31.3712C48.094 32.122 48.7008 32.7305 49.4494 32.7305C50.1979 32.7305 50.8048 32.122 50.8048 31.3712V29.559Z" fill="white"/>
<path d="M9.35979 29.292C7.61155 29.292 6.0247 28.8605 4.59921 27.9974C3.17373 27.1073 2.0441 25.9071 1.21032 24.3966C0.403439 22.8861 0 21.1869 0 19.2989C0 17.4108 0.403439 15.7115 1.21032 14.2011C2.0441 12.6906 3.16028 11.4903 4.55886 10.6003C5.98435 9.71018 7.58466 9.26514 9.35979 9.26514C10.8122 9.26514 12.1032 9.57531 13.2328 10.1956C14.3894 10.789 15.3173 11.6252 16.0166 12.7041C16.7158 13.756 17.1059 14.9833 17.1865 16.3858V22.1714C17.1059 23.547 16.7158 24.7742 16.0166 25.8531C15.3442 26.932 14.4297 27.7816 13.2732 28.402C12.1436 28.9954 10.8391 29.292 9.35979 29.292ZM9.96498 25.8531C11.7669 25.8531 13.2194 25.2462 14.3221 24.0325C15.4249 22.7917 15.9762 21.2138 15.9762 19.2989C15.9762 17.9772 15.7207 16.8308 15.2097 15.8599C14.7255 14.8619 14.0262 14.0932 13.1118 13.5537C12.1974 12.9873 11.135 12.7041 9.92461 12.7041C8.71429 12.7041 7.63845 12.9873 6.69709 13.5537C5.78263 14.1201 5.05644 14.9024 4.51852 15.9003C4.0075 16.8713 3.75199 17.9907 3.75199 19.2584C3.75199 20.553 4.0075 21.6993 4.51852 22.6974C5.05644 23.6684 5.79608 24.437 6.73744 25.0034C7.6788 25.5699 8.75464 25.8531 9.96498 25.8531ZM15.7341 28.8875V23.7088L16.42 19.0156L15.7341 14.3629V9.66971H19.4054V28.8875H15.7341Z" fill="#5DD149"/>
<path d="M24.6914 28.8873V0H28.3224V28.8873H24.6914Z" fill="#5DD149"/>
<path d="M70.5408 29.2916C68.7656 29.2916 67.1653 28.8601 65.7398 27.9969C64.3143 27.1068 63.1847 25.9066 62.351 24.3961C61.544 22.8857 61.1406 21.1864 61.1406 19.2983C61.1406 17.4103 61.544 15.7111 62.351 14.2005C63.1847 12.6901 64.3143 11.4898 65.7398 10.5998C67.1653 9.70969 68.7522 9.26465 70.5004 9.26465C71.9797 9.26465 73.2842 9.57483 74.4138 10.1952C75.5703 10.7886 76.4848 11.6247 77.1572 12.7036C77.8564 13.7555 78.2465 14.9828 78.3271 16.3854V22.1709C78.2465 23.5464 77.8564 24.7737 77.1572 25.8526C76.4848 26.9315 75.5703 27.7812 74.4138 28.4015C73.2842 28.9948 71.9931 29.2916 70.5408 29.2916ZM71.1056 25.8526C72.9076 25.8526 74.36 25.2457 75.4628 24.032C76.5655 22.7913 77.1169 21.2134 77.1169 19.2983C77.1169 17.9767 76.8613 16.8304 76.3503 15.8593C75.8662 14.8614 75.1668 14.0927 74.2524 13.5533C73.3648 12.9869 72.3158 12.7036 71.1056 12.7036C69.8953 12.7036 68.8194 12.9869 67.8781 13.5533C66.9636 14.1197 66.2374 14.9018 65.6995 15.8998C65.1616 16.8709 64.8926 17.9902 64.8926 19.2579C64.8926 20.5526 65.1616 21.6989 65.6995 22.6969C66.2374 23.6678 66.9636 24.4366 67.8781 25.003C68.8194 25.5694 69.8953 25.8526 71.1056 25.8526ZM76.9151 36.9382V24.0724L77.5606 19.3793L76.9151 14.7266V9.66924H80.546V36.9382H76.9151Z" fill="#5DD149"/>
<path d="M94.02 29.2916C92.2717 29.2916 90.6849 28.8601 89.2593 27.9969C87.8339 27.1068 86.7042 25.9066 85.8705 24.3961C85.0636 22.8857 84.6602 21.1864 84.6602 19.2983C84.6602 17.4103 85.0636 15.7111 85.8705 14.2005C86.7042 12.6901 87.8204 11.4898 89.2191 10.5998C90.6445 9.70969 92.2448 9.26465 94.02 9.26465C95.4723 9.26465 96.7634 9.57483 97.893 10.1952C99.0495 10.7886 99.977 11.6247 100.676 12.7036C101.376 13.7555 101.766 14.9828 101.847 16.3854V22.1709C101.766 23.5464 101.376 24.7737 100.676 25.8526C100.004 26.9315 99.0898 27.7812 97.9333 28.4015C96.8037 28.9948 95.4992 29.2916 94.02 29.2916ZM94.6251 25.8526C96.4271 25.8526 97.8795 25.2457 98.9823 24.032C100.085 22.7913 100.637 21.2134 100.637 19.2983C100.637 17.9767 100.381 16.8304 99.8694 15.8593C99.3857 14.8614 98.6864 14.0927 97.7719 13.5533C96.8575 12.9869 95.7951 12.7036 94.5848 12.7036C93.3744 12.7036 92.2986 12.9869 91.3573 13.5533C90.4428 14.1197 89.7166 14.9018 89.1787 15.8998C88.6677 16.8709 88.4121 17.9902 88.4121 19.2579C88.4121 20.5526 88.6677 21.6989 89.1787 22.6969C89.7166 23.6678 90.4562 24.4366 91.3976 25.003C92.339 25.5694 93.4148 25.8526 94.6251 25.8526ZM100.394 28.887V23.7083L101.08 19.0152L100.394 14.3624V9.66924H104.066V28.887H100.394Z" fill="#5DD149"/>
<path d="M112.54 29.2917C111.787 29.2917 111.155 29.0354 110.644 28.523C110.16 27.9835 109.918 27.3497 109.918 26.6215C109.918 25.8662 110.16 25.2458 110.644 24.7604C111.155 24.2479 111.787 23.9917 112.54 23.9917C113.293 23.9917 113.912 24.2479 114.396 24.7604C114.907 25.2458 115.162 25.8662 115.162 26.6215C115.162 27.3497 114.907 27.9835 114.396 28.523C113.912 29.0354 113.293 29.2917 112.54 29.2917Z" fill="#5DD149"/>
<path d="M128.415 29.2916C126.667 29.2916 125.079 28.8601 123.654 27.9969C122.229 27.1068 121.099 25.9066 120.265 24.3961C119.458 22.8857 119.055 21.1864 119.055 19.2983C119.055 17.4103 119.458 15.7111 120.265 14.2005C121.099 12.6901 122.215 11.4898 123.614 10.5998C125.04 9.70969 126.64 9.26465 128.415 9.26465C129.867 9.26465 131.158 9.57483 132.288 10.1952C133.445 10.7886 134.372 11.6247 135.072 12.7036C135.771 13.7555 136.161 14.9828 136.241 16.3854V22.1709C136.161 23.5464 135.771 24.7737 135.072 25.8526C134.399 26.9315 133.485 27.7812 132.328 28.4015C131.198 28.9948 129.894 29.2916 128.415 29.2916ZM129.02 25.8526C130.822 25.8526 132.274 25.2457 133.377 24.032C134.48 22.7913 135.031 21.2134 135.031 19.2983C135.031 17.9767 134.776 16.8304 134.265 15.8593C133.78 14.8614 133.081 14.0927 132.166 13.5533C131.252 12.9869 130.19 12.7036 128.979 12.7036C127.77 12.7036 126.694 12.9869 125.752 13.5533C124.837 14.1197 124.111 14.9018 123.573 15.8998C123.062 16.8709 122.807 17.9902 122.807 19.2579C122.807 20.5526 123.062 21.6989 123.573 22.6969C124.111 23.6678 124.851 24.4366 125.792 25.003C126.733 25.5694 127.809 25.8526 129.02 25.8526ZM134.789 28.887V23.7083L135.475 19.0152L134.789 14.3624V9.66924H138.46V28.887H134.789Z" fill="#5DD149"/>
<path d="M143.788 28.8869V9.66913H147.42V28.8869H143.788ZM145.604 5.82557C144.932 5.82557 144.38 5.6098 143.949 5.17824C143.52 4.71971 143.305 4.15329 143.305 3.47899C143.305 2.83165 143.52 2.29221 143.949 1.86064C144.38 1.40212 144.932 1.17285 145.604 1.17285C146.276 1.17285 146.828 1.40212 147.258 1.86064C147.689 2.29221 147.904 2.83165 147.904 3.47899C147.904 4.15329 147.689 4.71971 147.258 5.17824C146.828 5.6098 146.276 5.82557 145.604 5.82557Z" fill="#5DD149"/>
</g>
<g clip-path="url(#clip1_294_1681)">
<path d="M42.8997 17.2351C42.8997 17.5782 42.8031 17.8946 42.6099 18.1844C42.4167 18.4742 42.1546 18.7036 41.8235 18.8727C41.4925 19.0418 41.1309 19.1264 40.7389 19.1264C40.3469 19.1264 39.9854 19.0418 39.6543 18.8727C39.3232 18.7036 39.0611 18.4742 38.8679 18.1844C38.6747 17.8946 38.5781 17.5782 38.5781 17.2351C38.5781 16.8919 38.6747 16.5755 38.8679 16.2857C39.0611 15.9959 39.3232 15.7665 39.6543 15.5974C39.9854 15.4283 40.3469 15.3438 40.7389 15.3438C41.1309 15.3438 41.4925 15.4283 41.8235 15.5974C42.1546 15.7665 42.4167 15.9959 42.6099 16.2857C42.8031 16.5755 42.8997 16.8919 42.8997 17.2351Z" fill="white"/>
<path d="M50.4621 17.2351C50.4621 17.5782 50.3656 17.8946 50.1724 18.1844C49.9792 18.4742 49.7171 18.7036 49.3861 18.8727C49.055 19.0418 48.6934 19.1264 48.3014 19.1264C47.9094 19.1264 47.5479 19.0418 47.2168 18.8727C46.8857 18.7036 46.6236 18.4742 46.4304 18.1844C46.2372 17.8946 46.1406 17.5782 46.1406 17.2351C46.1406 16.8919 46.2372 16.5755 46.4304 16.2857C46.6236 15.9959 46.8857 15.7665 47.2168 15.5974C47.5479 15.4283 47.9094 15.3438 48.3014 15.3438C48.6934 15.3438 49.055 15.4283 49.3861 15.5974C49.7171 15.7665 49.9792 15.9959 50.1724 16.2857C50.3656 16.5755 50.4621 16.8919 50.4621 17.2351Z" fill="white"/>
</g>
<defs>
<clipPath id="clip0_294_1681">
<rect width="148.453" height="36.9688" fill="white"/>
</clipPath>
<clipPath id="clip1_294_1681">
<rect width="11.9531" height="4.35938" fill="white" transform="translate(38.5781 15.3438)"/>
</clipPath>
</defs>
</svg>
