<svg width="443" height="144" viewBox="0 0 443 144" fill="none" xmlns="http://www.w3.org/2000/svg">
<path d="M115.196 85.28C113.945 85.28 112.825 84.972 111.836 84.356C110.865 83.74 110.091 82.9 109.512 81.836C108.952 80.772 108.672 79.5587 108.672 78.196C108.672 76.8333 108.952 75.62 109.512 74.556C110.091 73.492 110.865 72.652 111.836 72.036C112.825 71.42 113.945 71.112 115.196 71.112C116.111 71.112 116.932 71.2893 117.66 71.644C118.407 71.9987 119.013 72.4933 119.48 73.128C119.947 73.744 120.208 74.4533 120.264 75.256V81.136C120.208 81.9387 119.947 82.6573 119.48 83.292C119.032 83.908 118.435 84.3933 117.688 84.748C116.941 85.1027 116.111 85.28 115.196 85.28ZM116.064 81.416C116.979 81.416 117.716 81.1173 118.276 80.52C118.836 79.904 119.116 79.1293 119.116 78.196C119.116 77.5613 118.985 77.0013 118.724 76.516C118.481 76.0307 118.127 75.6573 117.66 75.396C117.212 75.116 116.689 74.976 116.092 74.976C115.495 74.976 114.963 75.116 114.496 75.396C114.048 75.6573 113.684 76.0307 113.404 76.516C113.143 77.0013 113.012 77.5613 113.012 78.196C113.012 78.812 113.143 79.3627 113.404 79.848C113.665 80.3333 114.029 80.716 114.496 80.996C114.963 81.276 115.485 81.416 116.064 81.416ZM118.948 85V81.332L119.592 78.028L118.948 74.724V71.392H123.148V85H118.948ZM126.164 85V64.672H130.448V85H126.164ZM140.017 85.308C138.617 85.308 137.348 85 136.209 84.384C135.089 83.7493 134.202 82.8907 133.549 81.808C132.896 80.7253 132.569 79.512 132.569 78.168C132.569 76.824 132.896 75.62 133.549 74.556C134.202 73.492 135.089 72.652 136.209 72.036C137.329 71.4013 138.598 71.084 140.017 71.084C141.436 71.084 142.705 71.392 143.825 72.008C144.945 72.624 145.832 73.4733 146.485 74.556C147.138 75.62 147.465 76.824 147.465 78.168C147.465 79.512 147.138 80.7253 146.485 81.808C145.832 82.8907 144.945 83.7493 143.825 84.384C142.705 85 141.436 85.308 140.017 85.308ZM140.017 81.416C140.633 81.416 141.174 81.2853 141.641 81.024C142.108 80.744 142.462 80.3613 142.705 79.876C142.966 79.372 143.097 78.8027 143.097 78.168C143.097 77.5333 142.966 76.9827 142.705 76.516C142.444 76.0307 142.08 75.6573 141.613 75.396C141.165 75.116 140.633 74.976 140.017 74.976C139.42 74.976 138.888 75.116 138.421 75.396C137.954 75.6573 137.59 76.0307 137.329 76.516C137.068 77.0013 136.937 77.5613 136.937 78.196C136.937 78.812 137.068 79.372 137.329 79.876C137.59 80.3613 137.954 80.744 138.421 81.024C138.888 81.2853 139.42 81.416 140.017 81.416ZM155.282 85.28C154.031 85.28 152.911 84.972 151.922 84.356C150.951 83.74 150.177 82.9 149.598 81.836C149.038 80.772 148.758 79.5587 148.758 78.196C148.758 76.8333 149.038 75.62 149.598 74.556C150.177 73.492 150.951 72.652 151.922 72.036C152.911 71.42 154.031 71.112 155.282 71.112C156.197 71.112 157.018 71.2893 157.746 71.644C158.493 71.9987 159.099 72.4933 159.566 73.128C160.033 73.744 160.294 74.4533 160.35 75.256V81.136C160.294 81.9387 160.033 82.6573 159.566 83.292C159.118 83.908 158.521 84.3933 157.774 84.748C157.027 85.1027 156.197 85.28 155.282 85.28ZM156.15 81.416C157.065 81.416 157.802 81.1173 158.362 80.52C158.922 79.904 159.202 79.1293 159.202 78.196C159.202 77.5613 159.071 77.0013 158.81 76.516C158.567 76.0307 158.213 75.6573 157.746 75.396C157.298 75.116 156.775 74.976 156.178 74.976C155.581 74.976 155.049 75.116 154.582 75.396C154.134 75.6573 153.77 76.0307 153.49 76.516C153.229 77.0013 153.098 77.5613 153.098 78.196C153.098 78.812 153.229 79.3627 153.49 79.848C153.751 80.3333 154.115 80.716 154.582 80.996C155.049 81.276 155.571 81.416 156.15 81.416ZM159.034 90.74V81.5L159.678 78.196L159.034 74.892V71.392H163.234V90.74H159.034ZM171.934 85.28C170.684 85.28 169.564 84.972 168.574 84.356C167.604 83.74 166.829 82.9 166.25 81.836C165.69 80.772 165.41 79.5587 165.41 78.196C165.41 76.8333 165.69 75.62 166.25 74.556C166.829 73.492 167.604 72.652 168.574 72.036C169.564 71.42 170.684 71.112 171.934 71.112C172.849 71.112 173.67 71.2893 174.398 71.644C175.145 71.9987 175.752 72.4933 176.218 73.128C176.685 73.744 176.946 74.4533 177.002 75.256V81.136C176.946 81.9387 176.685 82.6573 176.218 83.292C175.77 83.908 175.173 84.3933 174.426 84.748C173.68 85.1027 172.849 85.28 171.934 85.28ZM172.802 81.416C173.717 81.416 174.454 81.1173 175.014 80.52C175.574 79.904 175.854 79.1293 175.854 78.196C175.854 77.5613 175.724 77.0013 175.462 76.516C175.22 76.0307 174.865 75.6573 174.398 75.396C173.95 75.116 173.428 74.976 172.83 74.976C172.233 74.976 171.701 75.116 171.234 75.396C170.786 75.6573 170.422 76.0307 170.142 76.516C169.881 77.0013 169.75 77.5613 169.75 78.196C169.75 78.812 169.881 79.3627 170.142 79.848C170.404 80.3333 170.768 80.716 171.234 80.996C171.701 81.276 172.224 81.416 172.802 81.416ZM175.686 85V81.332L176.33 78.028L175.686 74.724V71.392H179.886V85H175.686ZM185.591 85.308C184.863 85.308 184.256 85.056 183.771 84.552C183.285 84.048 183.043 83.4413 183.043 82.732C183.043 81.9853 183.285 81.3693 183.771 80.884C184.256 80.38 184.863 80.128 185.591 80.128C186.337 80.128 186.944 80.38 187.411 80.884C187.896 81.3693 188.139 81.9853 188.139 82.732C188.139 83.4413 187.896 84.048 187.411 84.552C186.944 85.056 186.337 85.308 185.591 85.308ZM196.626 85.28C195.375 85.28 194.255 84.972 193.266 84.356C192.295 83.74 191.52 82.9 190.942 81.836C190.382 80.772 190.102 79.5587 190.102 78.196C190.102 76.8333 190.382 75.62 190.942 74.556C191.52 73.492 192.295 72.652 193.266 72.036C194.255 71.42 195.375 71.112 196.626 71.112C197.54 71.112 198.362 71.2893 199.09 71.644C199.836 71.9987 200.443 72.4933 200.91 73.128C201.376 73.744 201.638 74.4533 201.694 75.256V81.136C201.638 81.9387 201.376 82.6573 200.91 83.292C200.462 83.908 199.864 84.3933 199.118 84.748C198.371 85.1027 197.54 85.28 196.626 85.28ZM197.494 81.416C198.408 81.416 199.146 81.1173 199.706 80.52C200.266 79.904 200.546 79.1293 200.546 78.196C200.546 77.5613 200.415 77.0013 200.154 76.516C199.911 76.0307 199.556 75.6573 199.09 75.396C198.642 75.116 198.119 74.976 197.522 74.976C196.924 74.976 196.392 75.116 195.926 75.396C195.478 75.6573 195.114 76.0307 194.834 76.516C194.572 77.0013 194.442 77.5613 194.442 78.196C194.442 78.812 194.572 79.3627 194.834 79.848C195.095 80.3333 195.459 80.716 195.926 80.996C196.392 81.276 196.915 81.416 197.494 81.416ZM200.378 85V81.332L201.022 78.028L200.378 74.724V71.392H204.578V85H200.378ZM207.594 85V71.392H211.878V85H207.594ZM209.75 69.516C209.078 69.516 208.518 69.292 208.07 68.844C207.641 68.3773 207.426 67.8173 207.426 67.164C207.426 66.492 207.641 65.932 208.07 65.484C208.518 65.036 209.078 64.812 209.75 64.812C210.422 64.812 210.973 65.036 211.402 65.484C211.831 65.932 212.046 66.492 212.046 67.164C212.046 67.8173 211.831 68.3773 211.402 68.844C210.973 69.292 210.422 69.516 209.75 69.516Z" fill="#D9F5DE"/>
<g filter="url(#filter0_f_1854_4606)">
<path d="M48 58C48 52.4772 52.4772 48 58 48H86C91.5229 48 96 52.4772 96 58V86C96 91.5229 91.5228 96 86 96H58C52.4772 96 48 91.5228 48 86V58Z" fill="#5DD149" fill-opacity="0.3"/>
</g>
<path d="M48 58C48 52.4772 52.4772 48 58 48H86C91.5229 48 96 52.4772 96 58V86C96 91.5229 91.5228 96 86 96H58C52.4772 96 48 91.5228 48 86V58Z" fill="url(#paint0_linear_1854_4606)"/>
<path d="M70.02 69L72.38 74.72H72.86L75.22 69H78.08L75.2 75.8V76.16L78.08 83H75.22L72.86 77.24H72.38L70.02 83H67.16L70.04 76.16V75.8L67.16 69H70.02Z" fill="black"/>
<defs>
<filter id="filter0_f_1854_4606" x="0" y="0" width="144" height="144" filterUnits="userSpaceOnUse" color-interpolation-filters="sRGB">
<feFlood flood-opacity="0" result="BackgroundImageFix"/>
<feBlend mode="normal" in="SourceGraphic" in2="BackgroundImageFix" result="shape"/>
<feGaussianBlur stdDeviation="24" result="effect1_foregroundBlur_1854_4606"/>
</filter>
<linearGradient id="paint0_linear_1854_4606" x1="48" y1="48" x2="96" y2="96" gradientUnits="userSpaceOnUse">
<stop stop-color="#5DD149"/>
<stop offset="1" stop-color="#5DD149" stop-opacity="0.5"/>
</linearGradient>
</defs>
</svg>
