<svg width="392" height="85" viewBox="0 0 392 85" fill="none" xmlns="http://www.w3.org/2000/svg">
<path d="M250.96 70.8C247.493 70.8 244.347 69.92 241.52 68.16C238.747 66.4 236.533 64.0267 234.88 61.04C233.28 58 232.48 54.6133 232.48 50.88C232.48 47.0933 233.28 43.7067 234.88 40.72C236.533 37.68 238.747 35.28 241.52 33.52C244.347 31.7067 247.493 30.8 250.96 30.8C253.893 30.8 256.48 31.44 258.72 32.72C261.013 33.9467 262.827 35.6533 264.16 37.84C265.493 40.0267 266.16 42.5067 266.16 45.28V56.32C266.16 59.0933 265.493 61.5733 264.16 63.76C262.88 65.9467 261.093 67.68 258.8 68.96C256.507 70.1867 253.893 70.8 250.96 70.8ZM252.4 62.48C255.653 62.48 258.267 61.3867 260.24 59.2C262.267 57.0133 263.28 54.2133 263.28 50.8C263.28 48.5067 262.827 46.48 261.92 44.72C261.013 42.96 259.733 41.6 258.08 40.64C256.48 39.6267 254.587 39.12 252.4 39.12C250.267 39.12 248.373 39.6267 246.72 40.64C245.12 41.6 243.84 42.96 242.88 44.72C241.973 46.48 241.52 48.5067 241.52 50.8C241.52 53.0933 241.973 55.12 242.88 56.88C243.84 58.64 245.12 60.0267 246.72 61.04C248.373 62 250.267 62.48 252.4 62.48ZM262.72 70V59.68L264.24 50.32L262.72 41.04V31.6H271.52V70H262.72ZM281.366 70V31.6H290.166V70H281.366ZM285.766 24.56C284.273 24.56 283.02 24.0533 282.006 23.04C281.046 22.0267 280.566 20.7733 280.566 19.28C280.566 17.7867 281.046 16.5333 282.006 15.52C283.02 14.5067 284.273 14 285.766 14C287.313 14 288.566 14.5067 289.526 15.52C290.486 16.5333 290.966 17.7867 290.966 19.28C290.966 20.7733 290.486 22.0267 289.526 23.04C288.566 24.0533 287.313 24.56 285.766 24.56Z" fill="#5DD149"/>
</svg>
