<svg width="161" height="40" viewBox="0 0 161 40" fill="none" xmlns="http://www.w3.org/2000/svg">
<path d="M37.0195 15.4376C44.379 6.44266 51.7385 6.44266 59.098 15.4376" stroke="white" stroke-width="2.74669" stroke-linecap="round"/>
<path d="M38.2399 12.875H34.8055C34.2635 12.875 33.8242 13.3143 33.8242 13.8563V21.7064C33.8242 22.2484 34.2635 22.6877 34.8055 22.6877H38.2399C38.7818 22.6877 39.2212 22.2484 39.2212 21.7064V13.8563C39.2212 13.3143 38.7818 12.875 38.2399 12.875Z" fill="white"/>
<path d="M62.279 12.875H58.8445C58.3026 12.875 57.8633 13.3143 57.8633 13.8563V21.7064C57.8633 22.2484 58.3026 22.6877 58.8445 22.6877H62.279C62.8209 22.6877 63.2602 22.2484 63.2602 21.7064V13.8563C63.2602 13.3143 62.8209 12.875 62.279 12.875Z" fill="white"/>
<path d="M60.5751 22.6875C60.5751 26.7761 58.6126 29.6382 54.6875 31.2736" stroke="white" stroke-width="2.74669" stroke-linecap="round"/>
<path d="M55.1704 32.009C55.1704 31.1961 54.5114 30.5371 53.6985 30.5371C52.8856 30.5371 52.2266 31.1961 52.2266 32.009V33.9716C52.2266 34.7845 52.8856 35.4435 53.6985 35.4435C54.5114 35.4435 55.1704 34.7845 55.1704 33.9716V32.009Z" fill="white"/>
<path d="M10.1643 31.7196C8.2658 31.7196 6.54254 31.2523 4.99453 30.3177C3.44652 29.3538 2.21979 28.0541 1.31435 26.4184C0.438116 24.7828 0 22.9427 0 20.8982C0 18.8536 0.438116 17.0135 1.31435 15.3779C2.21979 13.7423 3.43191 12.4425 4.95072 11.4787C6.49873 10.5148 8.23659 10.0329 10.1643 10.0329C11.7415 10.0329 13.1435 10.3688 14.3702 11.0405C15.6262 11.6831 16.6338 12.5885 17.3932 13.7569C18.1526 14.896 18.5761 16.2249 18.6638 17.7437V24.0088C18.5761 25.4984 18.1526 26.8273 17.3932 27.9956C16.663 29.164 15.67 30.084 14.414 30.7558C13.1873 31.3983 11.7707 31.7196 10.1643 31.7196ZM10.8215 27.9956C12.7784 27.9956 14.3556 27.3385 15.5531 26.0241C16.7507 24.6806 17.3494 22.9719 17.3494 20.8982C17.3494 19.467 17.0719 18.2256 16.517 17.1742C15.9912 16.0935 15.2318 15.2611 14.2388 14.6769C13.2457 14.0635 12.092 13.7569 10.7777 13.7569C9.46332 13.7569 8.295 14.0635 7.27273 14.6769C6.27967 15.2903 5.49106 16.1373 4.9069 17.218C4.35196 18.2695 4.07448 19.4816 4.07448 20.8543C4.07448 22.2563 4.35196 23.4976 4.9069 24.5783C5.49106 25.6298 6.29427 26.4622 7.31654 27.0756C8.33882 27.689 9.50713 27.9956 10.8215 27.9956ZM17.0865 31.2815V25.6736L17.8313 20.5915L17.0865 15.5531V10.471H21.0734V31.2815H17.0865Z" fill="#5DD149"/>
<path d="M26.8141 31.2815V0H30.7571V31.2815H26.8141Z" fill="#5DD149"/>
<path d="M76.6066 31.7196C74.6788 31.7196 72.941 31.2523 71.393 30.3176C69.845 29.3538 68.6182 28.054 67.7128 26.4184C66.8366 24.7828 66.3984 22.9427 66.3984 20.8981C66.3984 18.8536 66.8366 17.0135 67.7128 15.3779C68.6182 13.7422 69.845 12.4425 71.393 11.4786C72.941 10.5148 74.6642 10.0328 76.5627 10.0328C78.1692 10.0328 79.5857 10.3687 80.8125 11.0405C82.0684 11.6831 83.0615 12.5885 83.7917 13.7568C84.5511 14.8959 84.9746 16.2249 85.0622 17.7437V24.0088C84.9746 25.4983 84.5511 26.8273 83.7917 27.9956C83.0615 29.1639 82.0684 30.084 80.8125 30.7557C79.5857 31.3983 78.1838 31.7196 76.6066 31.7196ZM77.2199 27.9956C79.1768 27.9956 80.7541 27.3384 81.9516 26.0241C83.1491 24.6805 83.7478 22.9719 83.7478 20.8981C83.7478 19.4669 83.4704 18.2256 82.9154 17.1741C82.3897 16.0934 81.6303 15.261 80.6372 14.6769C79.6734 14.0635 78.5343 13.7568 77.2199 13.7568C75.9056 13.7568 74.7373 14.0635 73.715 14.6769C72.7219 15.2902 71.9333 16.1373 71.3492 17.2179C70.765 18.2694 70.4729 19.4815 70.4729 20.8543C70.4729 22.2563 70.765 23.4976 71.3492 24.5783C71.9333 25.6298 72.7219 26.4622 73.715 27.0756C74.7373 27.6889 75.9056 27.9956 77.2199 27.9956ZM83.5288 40V26.0679L84.2298 20.9857L83.5288 15.9474V10.471H87.4718V40H83.5288Z" fill="#5DD149"/>
<path d="M102.105 31.7196C100.207 31.7196 98.4835 31.2523 96.9355 30.3176C95.3875 29.3538 94.1608 28.054 93.2553 26.4184C92.3791 24.7828 91.941 22.9427 91.941 20.8981C91.941 18.8536 92.3791 17.0135 93.2553 15.3779C94.1608 13.7422 95.3729 12.4425 96.8917 11.4786C98.4397 10.5148 100.178 10.0328 102.105 10.0328C103.682 10.0328 105.084 10.3687 106.311 11.0405C107.567 11.6831 108.575 12.5885 109.334 13.7568C110.094 14.8959 110.517 16.2249 110.605 17.7437V24.0088C110.517 25.4983 110.094 26.8273 109.334 27.9956C108.604 29.1639 107.611 30.084 106.355 30.7557C105.128 31.3983 103.712 31.7196 102.105 31.7196ZM102.762 27.9956C104.719 27.9956 106.297 27.3384 107.494 26.0241C108.692 24.6805 109.29 22.9719 109.29 20.8981C109.29 19.4669 109.013 18.2256 108.458 17.1741C107.932 16.0934 107.173 15.261 106.18 14.6769C105.187 14.0635 104.033 13.7568 102.719 13.7568C101.404 13.7568 100.236 14.0635 99.2137 14.6769C98.2206 15.2902 97.432 16.1373 96.8479 17.2179C96.2929 18.2694 96.0154 19.4815 96.0154 20.8543C96.0154 22.2563 96.2929 23.4976 96.8479 24.5783C97.432 25.6298 98.2352 26.4622 99.2575 27.0756C100.28 27.6889 101.448 27.9956 102.762 27.9956ZM109.028 31.2815V25.6736L109.772 20.5914L109.028 15.5531V10.471H113.014V31.2815H109.028Z" fill="#5DD149"/>
<path d="M122.216 31.7196C121.398 31.7196 120.712 31.4421 120.157 30.8872C119.631 30.303 119.368 29.6166 119.368 28.828C119.368 28.0102 119.631 27.3384 120.157 26.8127C120.712 26.2577 121.398 25.9803 122.216 25.9803C123.034 25.9803 123.706 26.2577 124.232 26.8127C124.786 27.3384 125.064 28.0102 125.064 28.828C125.064 29.6166 124.786 30.303 124.232 30.8872C123.706 31.4421 123.034 31.7196 122.216 31.7196Z" fill="#5DD149"/>
<path d="M139.456 31.7196C137.558 31.7196 135.835 31.2523 134.287 30.3176C132.739 29.3538 131.512 28.054 130.606 26.4184C129.73 24.7828 129.292 22.9427 129.292 20.8981C129.292 18.8536 129.73 17.0135 130.606 15.3779C131.512 13.7422 132.724 12.4425 134.243 11.4786C135.791 10.5148 137.529 10.0328 139.456 10.0328C141.034 10.0328 142.436 10.3687 143.662 11.0405C144.918 11.6831 145.926 12.5885 146.685 13.7568C147.445 14.8959 147.868 16.2249 147.956 17.7437V24.0088C147.868 25.4983 147.445 26.8273 146.685 27.9956C145.955 29.1639 144.962 30.084 143.706 30.7557C142.479 31.3983 141.063 31.7196 139.456 31.7196ZM140.114 27.9956C142.07 27.9956 143.648 27.3384 144.845 26.0241C146.043 24.6805 146.642 22.9719 146.642 20.8981C146.642 19.4669 146.364 18.2256 145.809 17.1741C145.283 16.0934 144.524 15.261 143.531 14.6769C142.538 14.0635 141.384 13.7568 140.07 13.7568C138.755 13.7568 137.587 14.0635 136.565 14.6769C135.572 15.2902 134.783 16.1373 134.199 17.2179C133.644 18.2694 133.367 19.4815 133.367 20.8543C133.367 22.2563 133.644 23.4976 134.199 24.5783C134.783 25.6298 135.586 26.4622 136.609 27.0756C137.631 27.6889 138.799 27.9956 140.114 27.9956ZM146.379 31.2815V25.6736L147.123 20.5914L146.379 15.5531V10.471H150.366V31.2815H146.379Z" fill="#5DD149"/>
<path d="M156.15 31.2815V10.471H160.093V31.2815H156.15ZM158.122 6.30885C157.391 6.30885 156.793 6.07518 156.325 5.60786C155.858 5.11133 155.624 4.49797 155.624 3.76777C155.624 3.06679 155.858 2.48263 156.325 2.01531C156.793 1.51877 157.391 1.27051 158.122 1.27051C158.852 1.27051 159.45 1.51877 159.918 2.01531C160.385 2.48263 160.619 3.06679 160.619 3.76777C160.619 4.49797 160.385 5.11133 159.918 5.60786C159.45 6.07518 158.852 6.30885 158.122 6.30885Z" fill="#5DD149"/>
<path d="M46.4441 18.9594C46.4441 19.3852 46.3392 19.7779 46.1293 20.1375C45.9195 20.4971 45.6348 20.7818 45.2752 20.9916C44.9156 21.2015 44.5229 21.3064 44.0971 21.3064C43.6712 21.3064 43.2785 21.2015 42.9189 20.9916C42.5593 20.7818 42.2746 20.4971 42.0648 20.1375C41.8549 19.7779 41.75 19.3852 41.75 18.9594C41.75 18.5335 41.8549 18.1408 42.0648 17.7812C42.2746 17.4217 42.5593 17.1369 42.9189 16.9271C43.2785 16.7172 43.6712 16.6123 44.0971 16.6123C44.5229 16.6123 44.9156 16.7172 45.2752 16.9271C45.6348 17.1369 45.9195 17.4217 46.1293 17.7812C46.3392 18.1408 46.4441 18.5335 46.4441 18.9594Z" fill="white"/>
<path d="M54.6589 18.9594C54.6589 19.3852 54.554 19.7779 54.3442 20.1375C54.1343 20.4971 53.8496 20.7818 53.49 20.9916C53.1304 21.2015 52.7377 21.3064 52.3119 21.3064C51.8861 21.3064 51.4934 21.2015 51.1338 20.9916C50.7742 20.7818 50.4895 20.4971 50.2796 20.1375C50.0698 19.7779 49.9648 19.3852 49.9648 18.9594C49.9648 18.5335 50.0698 18.1408 50.2796 17.7812C50.4895 17.4217 50.7742 17.1369 51.1338 16.9271C51.4934 16.7172 51.8861 16.6123 52.3119 16.6123C52.7377 16.6123 53.1304 16.7172 53.49 16.9271C53.8496 17.1369 54.1343 17.4217 54.3442 17.7812C54.554 18.1408 54.6589 18.5335 54.6589 18.9594Z" fill="white"/>
</svg>
