<svg width="851" height="756" viewBox="0 0 851 756" fill="none" xmlns="http://www.w3.org/2000/svg">
<g filter="url(#filter0_d_1854_4275)">
<path d="M179.14 378C179.14 239.929 291.068 128 429.14 128H505.14C643.211 128 755.14 239.929 755.14 378C755.14 516.071 643.211 628 505.14 628H429.14C291.068 628 179.14 516.071 179.14 378Z" fill="white" fill-opacity="0.01" shape-rendering="crispEdges"/>
</g>
<g filter="url(#filter1_f_1854_4275)">
<path d="M217.14 378C217.14 239.929 329.068 128 467.14 128C605.211 128 717.14 239.929 717.14 378C717.14 516.071 605.211 628 467.14 628C329.068 628 217.14 516.071 217.14 378Z" fill="url(#paint0_linear_1854_4275)"/>
</g>
<path d="M267.14 378C267.14 267.543 356.683 178 467.14 178C577.597 178 667.14 267.543 667.14 378C667.14 488.457 577.597 578 467.14 578C356.683 578 267.14 488.457 267.14 378Z" fill="url(#paint1_linear_1854_4275)"/>
<mask id="path-4-inside-1_1854_4275" fill="white">
<path d="M204.803 371.866C232.746 258.31 347.453 188.906 461.01 216.848C574.566 244.791 643.97 359.499 616.027 473.055C588.085 586.612 473.377 656.015 359.821 628.073C246.264 600.13 176.86 485.423 204.803 371.866Z"/>
</mask>
<path d="M359.821 628.073L360.299 626.131C247.815 598.452 179.066 484.828 206.745 372.344L204.803 371.866L202.861 371.388C174.654 486.017 244.714 601.808 359.343 630.015L359.821 628.073ZM616.027 473.055L614.085 472.577C586.407 585.061 472.783 653.809 360.299 626.131L359.821 628.073L359.343 630.015C473.972 658.221 589.763 588.162 617.969 473.533L616.027 473.055ZM461.01 216.848L460.532 218.79C573.016 246.469 641.764 360.093 614.085 472.577L616.027 473.055L617.969 473.533C646.176 358.904 576.117 243.113 461.488 214.906L461.01 216.848ZM461.01 216.848L461.488 214.906C346.858 186.7 231.067 256.759 202.861 371.388L204.803 371.866L206.745 372.344C234.424 259.86 348.048 191.112 460.532 218.79L461.01 216.848Z" fill="#5DD149" fill-opacity="0.2" mask="url(#path-4-inside-1_1854_4275)"/>
<mask id="path-6-inside-2_1854_4275" fill="white">
<path d="M148.581 290.582C230.641 244.985 334.127 274.544 379.724 356.603C425.321 438.663 395.763 542.149 313.703 587.746C231.644 633.343 128.158 603.785 82.5608 521.725C36.9636 439.666 66.522 336.18 148.581 290.582Z"/>
</mask>
<path d="M82.5608 521.725L84.309 520.754C39.2483 439.66 68.459 337.391 149.553 292.331L148.581 290.582L147.61 288.834C64.5851 334.968 34.6788 439.672 80.8125 522.697L82.5608 521.725ZM313.703 587.746L312.732 585.998C231.638 631.058 129.37 601.848 84.309 520.754L82.5608 521.725L80.8125 522.697C126.946 605.721 231.65 635.628 314.675 589.494L313.703 587.746ZM379.724 356.603L377.976 357.575C423.037 438.668 393.826 540.937 312.732 585.998L313.703 587.746L314.675 589.494C397.7 543.36 427.606 438.657 381.472 355.632L379.724 356.603ZM379.724 356.603L381.472 355.632C335.339 272.607 230.635 242.701 147.61 288.834L148.581 290.582L149.553 292.331C230.647 247.27 332.915 276.481 377.976 357.575L379.724 356.603Z" fill="#5DD149" fill-opacity="0.1" mask="url(#path-6-inside-2_1854_4275)"/>
<g opacity="0.148043">
<path d="M515.89 379.286C515.89 378.609 516.439 378.061 517.116 378.061C517.793 378.061 518.342 378.609 518.342 379.286C518.342 379.964 517.793 380.512 517.116 380.512C516.439 380.512 515.89 379.964 515.89 379.286Z" fill="#5DD149"/>
</g>
<g opacity="0.0167767">
<path d="M473.679 383.93C473.679 383.851 473.743 383.787 473.822 383.787C473.901 383.787 473.965 383.851 473.965 383.93C473.965 384.009 473.901 384.073 473.822 384.073C473.743 384.073 473.679 384.009 473.679 383.93Z" fill="#5DD149"/>
</g>
<g opacity="0.0136527">
<path d="M469.038 382.745C469.038 382.686 469.086 382.639 469.145 382.639C469.203 382.639 469.251 382.686 469.251 382.745C469.251 382.804 469.203 382.852 469.145 382.852C469.086 382.852 469.038 382.804 469.038 382.745Z" fill="#5DD149"/>
</g>
<g opacity="0.138082">
<path d="M428.194 379.287C428.194 378.671 428.694 378.172 429.31 378.172C429.926 378.172 430.425 378.671 430.425 379.287C430.425 379.904 429.926 380.403 429.31 380.403C428.694 380.403 428.194 379.904 428.194 379.287Z" fill="#5DD149"/>
</g>
<g opacity="0.398767">
<path d="M416.351 289.198C416.351 287.666 417.593 286.424 419.125 286.424C420.657 286.424 421.899 287.666 421.899 289.198C421.899 290.73 420.657 291.972 419.125 291.972C417.593 291.972 416.351 290.73 416.351 289.198Z" fill="#5DD149"/>
</g>
<g opacity="0.776001">
<path d="M539.601 254.025C539.601 251.895 541.327 250.168 543.458 250.168C545.588 250.168 547.315 251.895 547.315 254.025C547.315 256.155 545.588 257.882 543.458 257.882C541.327 257.882 539.601 256.155 539.601 254.025Z" fill="#5DD149"/>
</g>
<g filter="url(#filter2_f_1854_4275)">
<path d="M267.14 375.287C267.14 264.83 356.683 175.287 467.14 175.287C577.597 175.287 667.14 264.83 667.14 375.287C667.14 485.744 577.597 575.287 467.14 575.287C356.683 575.287 267.14 485.744 267.14 375.287Z" fill="#5DD149" fill-opacity="0.2"/>
</g>
<path d="M467.14 217.787L607.14 287.787V462.787L467.14 532.787L327.14 462.787V287.787L467.14 217.787Z" stroke="url(#paint2_linear_1854_4275)" stroke-width="1.75" stroke-dasharray="700 700"/>
<g clip-path="url(#clip0_1854_4275)">
<mask id="path-16-inside-3_1854_4275" fill="white">
<path d="M307.14 239.287C307.14 226.032 317.885 215.287 331.14 215.287H603.14C616.395 215.287 627.14 226.032 627.14 239.287V511.287C627.14 524.542 616.394 535.287 603.14 535.287H331.14C317.885 535.287 307.14 524.542 307.14 511.287V239.287Z"/>
</mask>
<path d="M307.14 239.287C307.14 226.032 317.885 215.287 331.14 215.287H603.14C616.395 215.287 627.14 226.032 627.14 239.287V511.287C627.14 524.542 616.394 535.287 603.14 535.287H331.14C317.885 535.287 307.14 524.542 307.14 511.287V239.287Z" fill="url(#paint3_linear_1854_4275)"/>
<rect width="318" height="318" transform="translate(275.96 216.287)" fill="url(#paint4_linear_1854_4275)"/>
<g opacity="0.1">
<path d="M339.937 248.088H403.537V311.688M530.737 248.088H594.337V311.688M339.937 438.888V502.488H403.537M530.737 502.488H594.337V438.888" stroke="#5DD149" stroke-width="1.59"/>
<path d="M403.539 318.046C407.051 318.046 409.899 315.199 409.899 311.686C409.899 308.174 407.051 305.326 403.539 305.326C400.026 305.326 397.179 308.174 397.179 311.686C397.179 315.199 400.026 318.046 403.539 318.046Z" fill="#5DD149"/>
<path d="M530.742 318.046C534.254 318.046 537.102 315.199 537.102 311.686C537.102 308.174 534.254 305.326 530.742 305.326C527.229 305.326 524.382 308.174 524.382 311.686C524.382 315.199 527.229 318.046 530.742 318.046Z" fill="#5DD149"/>
<path d="M403.539 445.247C407.051 445.247 409.899 442.4 409.899 438.887C409.899 435.375 407.051 432.527 403.539 432.527C400.026 432.527 397.179 435.375 397.179 438.887C397.179 442.4 400.026 445.247 403.539 445.247Z" fill="#5DD149"/>
<path d="M530.742 445.247C534.254 445.247 537.102 442.4 537.102 438.887C537.102 435.375 534.254 432.527 530.742 432.527C527.229 432.527 524.382 435.375 524.382 438.887C524.382 442.4 527.229 445.247 530.742 445.247Z" fill="#5DD149"/>
<path d="M467.141 279.887V343.487M467.141 407.087V470.687M371.741 375.287H435.341M498.941 375.287H562.541" stroke="#5DD149" stroke-width="1.59" stroke-dasharray="6.36 6.36"/>
</g>
<mask id="path-24-inside-4_1854_4275" fill="white">
<path d="M320.14 228.287H352.14V260.287H320.14V228.287Z"/>
</mask>
<path d="M320.14 228.287V226.287H318.14V228.287H320.14ZM320.14 228.287V230.287H352.14V228.287V226.287H320.14V228.287ZM320.14 260.287H322.14V228.287H320.14H318.14V260.287H320.14Z" fill="#5DD149" fill-opacity="0.6" mask="url(#path-24-inside-4_1854_4275)"/>
<mask id="path-26-inside-5_1854_4275" fill="white">
<path d="M582.14 228.287H614.14V260.287H582.14V228.287Z"/>
</mask>
<path d="M614.14 228.287H616.14V226.287H614.14V228.287ZM582.14 228.287V230.287H614.14V228.287V226.287H582.14V228.287ZM614.14 228.287H612.14V260.287H614.14H616.14V228.287H614.14Z" fill="#5DD149" fill-opacity="0.6" mask="url(#path-26-inside-5_1854_4275)"/>
<mask id="path-28-inside-6_1854_4275" fill="white">
<path d="M320.14 490.287H352.14V522.287H320.14V490.287Z"/>
</mask>
<path d="M320.14 522.287H318.14V524.287H320.14V522.287ZM352.14 522.287V520.287H320.14V522.287V524.287H352.14V522.287ZM320.14 522.287H322.14V490.287H320.14H318.14V522.287H320.14Z" fill="#5DD149" fill-opacity="0.6" mask="url(#path-28-inside-6_1854_4275)"/>
<mask id="path-30-inside-7_1854_4275" fill="white">
<path d="M582.14 490.287H614.14V522.287H582.14V490.287Z"/>
</mask>
<path d="M614.14 522.287V524.287H616.14V522.287H614.14ZM614.14 490.287H612.14V522.287H614.14H616.14V490.287H614.14ZM614.14 522.287V520.287H582.14V522.287V524.287H614.14V522.287Z" fill="#5DD149" fill-opacity="0.6" mask="url(#path-30-inside-7_1854_4275)"/>
<g opacity="0.802544">
<path d="M389.096 261.947L384.056 256.917L389.096 251.877L394.126 256.917L389.096 261.947ZM413.473 255.557C413.473 255.33 413.426 255.13 413.333 254.957C413.246 254.784 413.126 254.64 412.973 254.527C412.819 254.414 412.643 254.327 412.443 254.267C412.243 254.207 412.033 254.177 411.813 254.177C411.619 254.177 411.436 254.204 411.263 254.257C411.089 254.304 410.933 254.374 410.793 254.467C410.659 254.56 410.553 254.677 410.473 254.817C410.393 254.95 410.353 255.107 410.353 255.287V255.347C410.353 255.54 410.393 255.707 410.473 255.847C410.553 255.98 410.669 256.097 410.823 256.197C410.983 256.29 411.179 256.37 411.413 256.437C411.646 256.497 411.919 256.55 412.233 256.597C412.966 256.71 413.506 256.927 413.853 257.247C414.199 257.56 414.373 257.984 414.373 258.517V258.637C414.373 258.937 414.319 259.214 414.213 259.467C414.113 259.714 413.959 259.927 413.753 260.107C413.553 260.287 413.303 260.427 413.003 260.527C412.703 260.627 412.356 260.677 411.963 260.677C411.516 260.677 411.119 260.614 410.773 260.487C410.433 260.354 410.146 260.174 409.913 259.947C409.686 259.714 409.513 259.444 409.393 259.137C409.273 258.824 409.213 258.484 409.213 258.117V257.817H410.053V258.057C410.053 258.67 410.219 259.13 410.553 259.437C410.893 259.744 411.363 259.897 411.963 259.897C412.483 259.897 412.873 259.784 413.133 259.557C413.399 259.324 413.533 259.017 413.533 258.637V258.577C413.533 258.21 413.396 257.93 413.123 257.737C412.856 257.544 412.419 257.404 411.813 257.317C411.459 257.27 411.139 257.2 410.853 257.107C410.573 257.007 410.333 256.88 410.133 256.727C409.933 256.567 409.779 256.377 409.673 256.157C409.566 255.937 409.513 255.677 409.513 255.377V255.257C409.513 254.984 409.569 254.734 409.683 254.507C409.796 254.28 409.953 254.084 410.153 253.917C410.359 253.75 410.603 253.624 410.883 253.537C411.169 253.444 411.483 253.397 411.823 253.397C412.216 253.397 412.566 253.454 412.873 253.567C413.186 253.68 413.449 253.834 413.663 254.027C413.876 254.214 414.036 254.437 414.143 254.697C414.256 254.95 414.313 255.217 414.313 255.497V255.917H413.473V255.557ZM421.526 258.077H421.346L419.156 253.537H420.096L421.886 257.357H422.006L423.796 253.537H424.736L422.546 258.077H422.366V260.537H421.526V258.077ZM433.719 255.557C433.719 255.33 433.672 255.13 433.579 254.957C433.492 254.784 433.372 254.64 433.219 254.527C433.065 254.414 432.889 254.327 432.689 254.267C432.489 254.207 432.279 254.177 432.059 254.177C431.865 254.177 431.682 254.204 431.509 254.257C431.335 254.304 431.179 254.374 431.039 254.467C430.905 254.56 430.799 254.677 430.719 254.817C430.639 254.95 430.599 255.107 430.599 255.287V255.347C430.599 255.54 430.639 255.707 430.719 255.847C430.799 255.98 430.915 256.097 431.069 256.197C431.229 256.29 431.425 256.37 431.659 256.437C431.892 256.497 432.165 256.55 432.479 256.597C433.212 256.71 433.752 256.927 434.099 257.247C434.445 257.56 434.619 257.984 434.619 258.517V258.637C434.619 258.937 434.565 259.214 434.459 259.467C434.359 259.714 434.205 259.927 433.999 260.107C433.799 260.287 433.549 260.427 433.249 260.527C432.949 260.627 432.602 260.677 432.209 260.677C431.762 260.677 431.365 260.614 431.019 260.487C430.679 260.354 430.392 260.174 430.159 259.947C429.932 259.714 429.759 259.444 429.639 259.137C429.519 258.824 429.459 258.484 429.459 258.117V257.817H430.299V258.057C430.299 258.67 430.465 259.13 430.799 259.437C431.139 259.744 431.609 259.897 432.209 259.897C432.729 259.897 433.119 259.784 433.379 259.557C433.645 259.324 433.779 259.017 433.779 258.637V258.577C433.779 258.21 433.642 257.93 433.369 257.737C433.102 257.544 432.665 257.404 432.059 257.317C431.705 257.27 431.385 257.2 431.099 257.107C430.819 257.007 430.579 256.88 430.379 256.727C430.179 256.567 430.025 256.377 429.919 256.157C429.812 255.937 429.759 255.677 429.759 255.377V255.257C429.759 254.984 429.815 254.734 429.929 254.507C430.042 254.28 430.199 254.084 430.399 253.917C430.605 253.75 430.849 253.624 431.129 253.537C431.415 253.444 431.729 253.397 432.069 253.397C432.462 253.397 432.812 253.454 433.119 253.567C433.432 253.68 433.695 253.834 433.909 254.027C434.122 254.214 434.282 254.437 434.389 254.697C434.502 254.95 434.559 255.217 434.559 255.497V255.917H433.719V255.557ZM439.732 253.537H444.652V254.317H442.612V260.537H441.772V254.317H439.732V253.537ZM450.195 253.537H454.435V254.317H451.035V256.637H454.375V257.417H451.035V259.757H454.495V260.537H450.195V253.537ZM459.838 253.537H461.438L462.378 260.177H462.498L463.438 253.537H465.038V260.537H464.258V253.897H464.138L463.198 260.537H461.678L460.738 253.897H460.618V260.537H459.838V253.537ZM484.184 258.797H481.184L480.674 260.537H479.774L481.894 253.537H483.474L485.594 260.537H484.694L484.184 258.797ZM482.624 253.897L481.414 258.017H483.954L482.744 253.897H482.624ZM492.847 259.897C493.134 259.897 493.377 259.85 493.577 259.757C493.784 259.657 493.95 259.527 494.077 259.367C494.21 259.2 494.307 259.014 494.367 258.807C494.434 258.594 494.467 258.37 494.467 258.137V258.017H495.307V258.137C495.307 258.49 495.254 258.824 495.147 259.137C495.04 259.444 494.884 259.714 494.677 259.947C494.47 260.174 494.214 260.354 493.907 260.487C493.6 260.614 493.247 260.677 492.847 260.677C492.074 260.677 491.47 260.434 491.037 259.947C490.604 259.46 490.387 258.75 490.387 257.817V256.257C490.387 255.35 490.604 254.647 491.037 254.147C491.47 253.647 492.074 253.397 492.847 253.397C493.247 253.397 493.6 253.464 493.907 253.597C494.214 253.724 494.47 253.904 494.677 254.137C494.884 254.364 495.04 254.634 495.147 254.947C495.254 255.254 495.307 255.584 495.307 255.937V256.057H494.467V255.937C494.46 255.71 494.424 255.49 494.357 255.277C494.297 255.064 494.2 254.877 494.067 254.717C493.94 254.55 493.777 254.42 493.577 254.327C493.377 254.227 493.134 254.177 492.847 254.177C492.307 254.177 491.9 254.374 491.627 254.767C491.36 255.16 491.227 255.677 491.227 256.317V257.757C491.227 258.444 491.36 258.974 491.627 259.347C491.9 259.714 492.307 259.897 492.847 259.897ZM500.47 253.537H505.39V254.317H503.35V260.537H502.51V254.317H500.47V253.537ZM510.833 253.537H515.273V254.317H513.473V259.757H515.273V260.537H510.833V259.757H512.633V254.317H510.833V253.537ZM520.386 253.537H521.286L523.116 260.177H523.236L525.066 253.537H525.966L523.986 260.537H522.366L520.386 253.537ZM531.179 253.537H535.419V254.317H532.019V256.637H535.359V257.417H532.019V259.757H535.479V260.537H531.179V253.537ZM556.035 261.947L550.995 256.917L556.035 251.877L561.065 256.917L556.035 261.947Z" fill="#5DD149"/>
</g>
<rect width="64" height="1" transform="translate(365.39 453.537)" fill="url(#paint5_linear_1854_4275)"/>
<path d="M443.774 459.101H439.574L438.86 461.537H437.6L440.568 451.737H442.78L445.748 461.537H444.488L443.774 459.101ZM441.59 452.241L439.896 458.009H443.452L441.758 452.241H441.59ZM453.508 456.833H457.876V461.537H456.784V460.361H456.616C456.457 460.772 456.177 461.103 455.776 461.355C455.375 461.607 454.908 461.733 454.376 461.733C453.321 461.733 452.491 461.392 451.884 460.711C451.287 460.03 450.988 459.036 450.988 457.729V455.545C450.988 454.276 451.291 453.291 451.898 452.591C452.505 451.891 453.349 451.541 454.432 451.541C454.992 451.541 455.487 451.634 455.916 451.821C456.345 451.998 456.705 452.25 456.994 452.577C457.283 452.894 457.503 453.272 457.652 453.711C457.801 454.14 457.876 454.602 457.876 455.097V455.265H456.7V455.097C456.7 454.78 456.653 454.472 456.56 454.173C456.476 453.874 456.341 453.613 456.154 453.389C455.977 453.156 455.743 452.974 455.454 452.843C455.174 452.703 454.833 452.633 454.432 452.633C453.676 452.633 453.107 452.908 452.724 453.459C452.351 454.01 452.164 454.733 452.164 455.629V457.645C452.164 458.606 452.351 459.348 452.724 459.871C453.107 460.384 453.685 460.641 454.46 460.641C455.16 460.641 455.706 460.417 456.098 459.969C456.499 459.521 456.7 458.896 456.7 458.093V457.925H453.508V456.833ZM464.25 451.737H470.186V452.829H465.426V456.077H470.102V457.169H465.426V460.445H470.27V461.537H464.25V451.737ZM481.908 461.033H482.076V451.737H483.252V461.537H480.9L478.072 452.241H477.904V461.537H476.728V451.737H479.08L481.908 461.033ZM489.319 451.737H496.207V452.829H493.351V461.537H492.175V452.829H489.319V451.737Z" fill="#D9F5DE" fill-opacity="0.7"/>
<rect width="64" height="1" transform="translate(504.89 453.537)" fill="url(#paint6_linear_1854_4275)"/>
<g opacity="0.728836">
<path d="M390.249 495.287C390.249 493.63 391.592 492.287 393.249 492.287C394.906 492.287 396.249 493.63 396.249 495.287C396.249 496.944 394.906 498.287 393.249 498.287C391.592 498.287 390.249 496.944 390.249 495.287Z" fill="#5DD149"/>
</g>
<path d="M404.236 499.213H404.344V493.237H405.1V499.537H403.588L401.77 493.561H401.662V499.537H400.906V493.237H402.418L404.236 499.213ZM407.056 493.237H410.872V493.939H407.812V496.027H410.818V496.729H407.812V498.835H410.926V499.537H407.056V493.237ZM413.521 493.237V497.413C413.521 497.923 413.638 498.31 413.872 498.574C414.112 498.832 414.463 498.961 414.925 498.961C415.387 498.961 415.735 498.832 415.969 498.574C416.209 498.31 416.329 497.923 416.329 497.413V493.237H417.085V497.413C417.085 498.145 416.893 498.703 416.509 499.087C416.125 499.471 415.597 499.663 414.925 499.663C414.253 499.663 413.725 499.471 413.341 499.087C412.957 498.703 412.765 498.145 412.765 497.413V493.237H413.521ZM422.856 499.537H422.1V497.431C422.1 497.275 422.064 497.155 421.992 497.071C421.92 496.987 421.794 496.945 421.614 496.945H419.652V499.537H418.896V493.237H421.146C421.47 493.237 421.752 493.285 421.992 493.381C422.232 493.471 422.43 493.594 422.586 493.75C422.748 493.906 422.868 494.089 422.946 494.299C423.03 494.503 423.072 494.719 423.072 494.947V495.217C423.072 495.451 423.006 495.685 422.874 495.919C422.748 496.153 422.55 496.333 422.28 496.459V496.567C422.46 496.597 422.601 496.669 422.703 496.783C422.805 496.897 422.856 497.059 422.856 497.269V499.537ZM419.652 496.243H421.056C421.482 496.243 421.797 496.153 422.001 495.973C422.211 495.787 422.316 495.517 422.316 495.163V495.001C422.316 494.683 422.211 494.428 422.001 494.236C421.797 494.038 421.482 493.939 421.056 493.939H419.652V496.243ZM428.196 497.971H425.496L425.037 499.537H424.227L426.135 493.237H427.557L429.465 499.537H428.655L428.196 497.971ZM426.792 493.561L425.703 497.269H427.989L426.9 493.561H426.792ZM430.836 493.237H431.592V498.835H434.886V499.537H430.836V493.237Z" fill="#5DD149" fill-opacity="0.6"/>
<g opacity="0.681716">
<path d="M448.64 495.287C448.64 493.63 449.983 492.287 451.64 492.287C453.297 492.287 454.64 493.63 454.64 495.287C454.64 496.944 453.297 498.287 451.64 498.287C449.983 498.287 448.64 496.944 448.64 495.287Z" fill="#5DD149"/>
</g>
<path d="M459.18 495.685C459.18 494.869 459.375 494.236 459.765 493.786C460.155 493.336 460.698 493.111 461.394 493.111C462.09 493.111 462.633 493.336 463.023 493.786C463.413 494.236 463.608 494.869 463.608 495.685V497.089C463.608 497.857 463.443 498.46 463.113 498.898C462.789 499.33 462.333 499.579 461.745 499.645V500.023C461.745 500.203 461.826 500.293 461.988 500.293H462.744V500.941H461.736C461.532 500.941 461.364 500.875 461.232 500.743C461.106 500.611 461.043 500.443 461.043 500.239V499.645C460.449 499.573 459.99 499.321 459.666 498.889C459.342 498.457 459.18 497.857 459.18 497.089V495.685ZM461.394 498.961C461.88 498.961 462.243 498.796 462.483 498.466C462.729 498.13 462.852 497.653 462.852 497.035V495.739C462.852 495.163 462.729 494.698 462.483 494.344C462.243 493.99 461.88 493.813 461.394 493.813C460.908 493.813 460.542 493.99 460.296 494.344C460.056 494.698 459.936 495.163 459.936 495.739V497.035C459.936 497.653 460.056 498.13 460.296 498.466C460.542 498.796 460.908 498.961 461.394 498.961ZM465.95 493.237V497.413C465.95 497.923 466.067 498.31 466.301 498.574C466.541 498.832 466.892 498.961 467.354 498.961C467.816 498.961 468.164 498.832 468.398 498.574C468.638 498.31 468.758 497.923 468.758 497.413V493.237H469.514V497.413C469.514 498.145 469.322 498.703 468.938 499.087C468.554 499.471 468.026 499.663 467.354 499.663C466.682 499.663 466.154 499.471 465.77 499.087C465.386 498.703 465.194 498.145 465.194 497.413V493.237H465.95ZM474.665 497.971H471.965L471.506 499.537H470.696L472.604 493.237H474.026L475.934 499.537H475.124L474.665 497.971ZM473.261 493.561L472.172 497.269H474.458L473.369 493.561H473.261ZM480.509 499.213H480.617V493.237H481.373V499.537H479.861L478.043 493.561H477.935V499.537H477.179V493.237H478.691L480.509 499.213ZM483.023 493.237H487.451V493.939H485.615V499.537H484.859V493.939H483.023V493.237ZM489.793 493.237V497.413C489.793 497.923 489.91 498.31 490.144 498.574C490.384 498.832 490.735 498.961 491.197 498.961C491.659 498.961 492.007 498.832 492.241 498.574C492.481 498.31 492.601 497.923 492.601 497.413V493.237H493.357V497.413C493.357 498.145 493.165 498.703 492.781 499.087C492.397 499.471 491.869 499.663 491.197 499.663C490.525 499.663 489.997 499.471 489.613 499.087C489.229 498.703 489.037 498.145 489.037 497.413V493.237H489.793ZM494.818 493.237H496.258L497.104 499.213H497.212L498.058 493.237H499.498V499.537H498.796V493.561H498.688L497.842 499.537H496.474L495.628 493.561H495.52V499.537H494.818V493.237Z" fill="#5DD149" fill-opacity="0.6"/>
<g opacity="0.356547">
<path d="M512.437 495.287C512.437 493.63 513.78 492.287 515.437 492.287C517.093 492.287 518.437 493.63 518.437 495.287C518.437 496.944 517.093 498.287 515.437 498.287C513.78 498.287 512.437 496.944 512.437 495.287Z" fill="#5DD149"/>
</g>
<path d="M527.207 499.537H525.83L525.245 493.561H525.137L524.552 499.537H523.175L522.536 493.237H523.22L523.823 499.213H523.931L524.498 493.237H525.884L526.451 499.213H526.559L527.162 493.237H527.846L527.207 499.537ZM529.243 493.237H533.059V493.939H529.999V496.027H533.005V496.729H529.999V498.835H533.113V499.537H529.243V493.237ZM534.871 498.835H535.411V493.939H534.871V493.237H537.418C537.718 493.237 537.982 493.279 538.21 493.363C538.444 493.447 538.639 493.561 538.795 493.705C538.957 493.849 539.077 494.023 539.155 494.227C539.239 494.425 539.281 494.641 539.281 494.875V494.983C539.281 495.157 539.254 495.316 539.2 495.46C539.146 495.604 539.071 495.733 538.975 495.847C538.879 495.961 538.765 496.06 538.633 496.144C538.507 496.222 538.369 496.282 538.219 496.324V496.432C538.519 496.516 538.771 496.678 538.975 496.918C539.179 497.152 539.281 497.44 539.281 497.782V497.89C539.281 498.124 539.239 498.343 539.155 498.547C539.077 498.745 538.957 498.919 538.795 499.069C538.639 499.213 538.444 499.327 538.21 499.411C537.982 499.495 537.718 499.537 537.418 499.537H534.871V498.835ZM536.167 498.835H537.364C537.718 498.835 538.006 498.748 538.228 498.574C538.45 498.394 538.561 498.148 538.561 497.836V497.782C538.561 497.458 538.456 497.203 538.246 497.017C538.036 496.825 537.751 496.729 537.391 496.729H536.167V498.835ZM536.167 496.027H537.391C537.751 496.027 538.036 495.934 538.246 495.748C538.456 495.562 538.561 495.307 538.561 494.983V494.929C538.561 494.623 538.45 494.383 538.228 494.209C538.006 494.029 537.718 493.939 537.364 493.939H536.167V496.027ZM542.452 496.405V495.361L544.504 494.047V493.939H540.94V493.237H545.152V494.389L543.1 495.703V495.811H543.46C543.7 495.811 543.931 495.85 544.153 495.928C544.375 496.006 544.57 496.12 544.738 496.27C544.912 496.42 545.05 496.606 545.152 496.828C545.26 497.044 545.314 497.296 545.314 497.584V497.746C545.314 498.016 545.26 498.268 545.152 498.502C545.044 498.736 544.894 498.94 544.702 499.114C544.51 499.282 544.282 499.417 544.018 499.519C543.76 499.615 543.478 499.663 543.172 499.663C542.818 499.663 542.5 499.609 542.218 499.501C541.936 499.393 541.696 499.246 541.498 499.06C541.3 498.868 541.147 498.646 541.039 498.394C540.937 498.136 540.886 497.863 540.886 497.575V497.089H541.642V497.521C541.642 497.749 541.678 497.953 541.75 498.133C541.828 498.307 541.933 498.457 542.065 498.583C542.203 498.703 542.365 498.796 542.551 498.862C542.737 498.928 542.938 498.961 543.154 498.961C543.352 498.961 543.535 498.928 543.703 498.862C543.877 498.796 544.027 498.706 544.153 498.592C544.279 498.472 544.378 498.334 544.45 498.178C544.522 498.016 544.558 497.845 544.558 497.665V497.611C544.558 497.233 544.438 496.939 544.198 496.729C543.958 496.513 543.658 496.405 543.298 496.405H542.452Z" fill="#5DD149" fill-opacity="0.6"/>
<path d="M449.655 411.537H416.335L411.575 432.537H392.255L415.635 334.537H450.355L473.735 432.537H454.415L449.655 411.537ZM420.255 393.897H445.595L434.255 343.777H431.735L420.255 393.897ZM485.958 334.537H551.478V352.177H527.958V414.897H551.478V432.537H485.958V414.897H509.478V352.177H485.958V334.537Z" fill="#5DD149"/>
</g>
<path d="M331.14 215.287V216.287H603.14V215.287V214.287H331.14V215.287ZM627.14 239.287H626.14V511.287H627.14H628.14V239.287H627.14ZM603.14 535.287V534.287H331.14V535.287V536.287H603.14V535.287ZM307.14 511.287H308.14V239.287H307.14H306.14V511.287H307.14ZM331.14 535.287V534.287C318.437 534.287 308.14 523.99 308.14 511.287H307.14H306.14C306.14 525.094 317.333 536.287 331.14 536.287V535.287ZM627.14 511.287H626.14C626.14 523.99 615.842 534.287 603.14 534.287V535.287V536.287C616.947 536.287 628.14 525.094 628.14 511.287H627.14ZM603.14 215.287V216.287C615.842 216.287 626.14 226.585 626.14 239.287H627.14H628.14C628.14 225.48 616.947 214.287 603.14 214.287V215.287ZM331.14 215.287V214.287C317.333 214.287 306.14 225.48 306.14 239.287H307.14H308.14C308.14 226.585 318.437 216.287 331.14 216.287V215.287Z" fill="#5DD149" fill-opacity="0.3" mask="url(#path-16-inside-3_1854_4275)"/>
<path d="M467.141 557.687C567.878 557.687 649.541 476.023 649.541 375.287C649.541 274.55 567.878 192.887 467.141 192.887C366.404 192.887 284.741 274.55 284.741 375.287C284.741 476.023 366.404 557.687 467.141 557.687Z" stroke="#5DD149" stroke-width="0.76" stroke-dasharray="15.2 15.2"/>
<mask id="path-42-inside-8_1854_4275" fill="white">
<path d="M142.202 219.402C142.202 210.566 149.366 203.402 158.202 203.402H206.202C215.039 203.402 222.202 210.566 222.202 219.402V267.402C222.202 276.239 215.039 283.402 206.202 283.402H158.202C149.366 283.402 142.202 276.239 142.202 267.402V219.402Z"/>
</mask>
<path d="M142.202 219.402C142.202 210.566 149.366 203.402 158.202 203.402H206.202C215.039 203.402 222.202 210.566 222.202 219.402V267.402C222.202 276.239 215.039 283.402 206.202 283.402H158.202C149.366 283.402 142.202 276.239 142.202 267.402V219.402Z" fill="#5DD149" fill-opacity="0.2"/>
<path d="M158.202 203.402V204.402H206.202V203.402V202.402H158.202V203.402ZM222.202 219.402H221.202V267.402H222.202H223.202V219.402H222.202ZM206.202 283.402V282.402H158.202V283.402V284.402H206.202V283.402ZM142.202 267.402H143.202V219.402H142.202H141.202V267.402H142.202ZM158.202 283.402V282.402C149.918 282.402 143.202 275.687 143.202 267.402H142.202H141.202C141.202 276.791 148.813 284.402 158.202 284.402V283.402ZM222.202 267.402H221.202C221.202 275.687 214.486 282.402 206.202 282.402V283.402V284.402C215.591 284.402 223.202 276.791 223.202 267.402H222.202ZM206.202 203.402V204.402C214.486 204.402 221.202 211.118 221.202 219.402H222.202H223.202C223.202 210.014 215.591 202.402 206.202 202.402V203.402ZM158.202 203.402V202.402C148.813 202.402 141.202 210.014 141.202 219.402H142.202H143.202C143.202 211.118 149.918 204.402 158.202 204.402V203.402Z" fill="#5DD149" fill-opacity="0.3" mask="url(#path-42-inside-8_1854_4275)"/>
<path d="M179.199 252.802H173.487L172.671 256.402H169.359L173.367 239.602H179.319L183.327 256.402H180.015L179.199 252.802ZM174.159 249.778H178.503L176.559 241.186H176.127L174.159 249.778ZM185.422 239.602H196.654V242.626H192.622V253.378H196.654V256.402H185.422V253.378H189.454V242.626H185.422V239.602Z" fill="#5DD149"/>
<mask id="path-45-inside-9_1854_4275" fill="white">
<path d="M698.968 468.252C698.968 459.415 706.131 452.252 714.968 452.252H778.968C787.804 452.252 794.968 459.415 794.968 468.252V532.252C794.968 541.089 787.804 548.252 778.968 548.252H714.968C706.131 548.252 698.968 541.089 698.968 532.252V468.252Z"/>
</mask>
<path d="M698.968 468.252C698.968 459.415 706.131 452.252 714.968 452.252H778.968C787.804 452.252 794.968 459.415 794.968 468.252V532.252C794.968 541.089 787.804 548.252 778.968 548.252H714.968C706.131 548.252 698.968 541.089 698.968 532.252V468.252Z" fill="#5DD149" fill-opacity="0.2"/>
<path d="M714.968 452.252V453.252H778.968V452.252V451.252H714.968V452.252ZM794.968 468.252H793.968V532.252H794.968H795.968V468.252H794.968ZM778.968 548.252V547.252H714.968V548.252V549.252H778.968V548.252ZM698.968 532.252H699.968V468.252H698.968H697.968V532.252H698.968ZM714.968 548.252V547.252C706.684 547.252 699.968 540.536 699.968 532.252H698.968H697.968C697.968 541.641 705.579 549.252 714.968 549.252V548.252ZM794.968 532.252H793.968C793.968 540.536 787.252 547.252 778.968 547.252V548.252V549.252C788.357 549.252 795.968 541.641 795.968 532.252H794.968ZM778.968 452.252V453.252C787.252 453.252 793.968 459.968 793.968 468.252H794.968H795.968C795.968 458.863 788.357 451.252 778.968 451.252V452.252ZM714.968 452.252V451.252C705.579 451.252 697.968 458.863 697.968 468.252H698.968H699.968C699.968 459.968 706.684 453.252 714.968 453.252V452.252Z" fill="#5DD149" fill-opacity="0.3" mask="url(#path-45-inside-9_1854_4275)"/>
<path d="M737.611 508.752H733.471L732.895 499.176V497.448H732.463V499.176L731.887 508.752H727.747L727.315 496.152H729.475L729.763 505.728V507.348H730.195V505.728L730.771 496.152H734.587L735.163 505.728V507.348H735.595V505.728L735.883 496.152H738.043L737.611 508.752ZM739.668 496.152H747.624V498.42H742.044V501.3H747.408V503.568H742.044V506.484H747.84V508.752H739.668V496.152ZM750.042 506.484H751.23V498.42H750.042V496.152H755.568C756.168 496.152 756.696 496.236 757.152 496.404C757.62 496.572 758.01 496.8 758.322 497.088C758.646 497.376 758.886 497.724 759.042 498.132C759.21 498.528 759.294 498.96 759.294 499.428V499.644C759.294 500.364 759.09 500.94 758.682 501.372C758.286 501.804 757.782 502.104 757.17 502.272V502.596C757.782 502.764 758.286 503.07 758.682 503.514C759.09 503.946 759.294 504.522 759.294 505.242V505.458C759.294 505.926 759.21 506.364 759.042 506.772C758.886 507.168 758.646 507.516 758.322 507.816C758.01 508.104 757.62 508.332 757.152 508.5C756.696 508.668 756.168 508.752 755.568 508.752H750.042V506.484ZM753.606 506.484H755.334C755.838 506.484 756.246 506.376 756.558 506.16C756.87 505.944 757.026 505.584 757.026 505.08V504.972C757.026 504.468 756.87 504.108 756.558 503.892C756.246 503.676 755.838 503.568 755.334 503.568H753.606V506.484ZM753.606 501.3H755.334C755.838 501.3 756.246 501.198 756.558 500.994C756.87 500.778 757.026 500.418 757.026 499.914V499.806C757.026 499.302 756.87 498.948 756.558 498.744C756.246 498.528 755.838 498.42 755.334 498.42H753.606V501.3ZM764.519 503.352V499.608L767.651 498.744V498.42H761.387V496.152H769.595V500.112L766.247 501.084V501.408H766.679C767.123 501.408 767.561 501.48 767.993 501.624C768.425 501.756 768.803 501.966 769.127 502.254C769.463 502.542 769.733 502.902 769.937 503.334C770.141 503.754 770.243 504.252 770.243 504.828V505.044C770.243 505.608 770.147 506.13 769.955 506.61C769.775 507.09 769.499 507.51 769.127 507.87C768.767 508.218 768.317 508.494 767.777 508.698C767.237 508.902 766.619 509.004 765.923 509.004C765.215 509.004 764.573 508.89 763.997 508.662C763.421 508.434 762.929 508.122 762.521 507.726C762.125 507.33 761.819 506.874 761.603 506.358C761.387 505.842 761.279 505.296 761.279 504.72V503.964H763.655V504.612C763.655 505.188 763.841 505.686 764.213 506.106C764.585 506.526 765.143 506.736 765.887 506.736C766.523 506.736 767.009 506.574 767.345 506.25C767.693 505.926 767.867 505.5 767.867 504.972C767.867 504.408 767.681 504 767.309 503.748C766.949 503.484 766.487 503.352 765.923 503.352H764.519Z" fill="#5DD149"/>
<mask id="path-48-inside-10_1854_4275" fill="white">
<path d="M110.358 401.484C111.747 382.612 128.173 368.439 147.045 369.829C165.918 371.219 180.09 387.645 178.7 406.517C177.31 425.389 160.885 439.561 142.012 438.172C123.14 436.782 108.968 420.356 110.358 401.484Z"/>
</mask>
<path d="M110.358 401.484C111.747 382.612 128.173 368.439 147.045 369.829C165.918 371.219 180.09 387.645 178.7 406.517C177.31 425.389 160.885 439.561 142.012 438.172C123.14 436.782 108.968 420.356 110.358 401.484Z" fill="#5DD149" fill-opacity="0.2"/>
<path d="M142.012 438.172L142.086 437.174C123.764 435.825 110.006 419.879 111.355 401.557L110.358 401.484L109.36 401.41C107.93 420.833 122.516 437.738 141.939 439.169L142.012 438.172ZM178.7 406.517L177.703 406.443C176.353 424.765 160.407 438.524 142.086 437.174L142.012 438.172L141.939 439.169C161.362 440.599 178.267 426.013 179.697 406.59L178.7 406.517ZM147.045 369.829L146.972 370.826C165.293 372.176 179.052 388.122 177.703 406.443L178.7 406.517L179.697 406.59C181.128 387.167 166.542 370.262 147.119 368.832L147.045 369.829ZM147.045 369.829L147.119 368.832C127.696 367.401 110.791 381.987 109.36 401.41L110.358 401.484L111.355 401.557C112.704 383.236 128.65 369.477 146.972 370.826L147.045 369.829Z" fill="#5DD149" fill-opacity="0.3" mask="url(#path-48-inside-10_1854_4275)"/>
<path d="M129.147 415.326L149.093 416.794L150.562 396.848L130.616 395.38L129.147 415.326Z" fill="#5DD149"/>
<defs>
<filter id="filter0_d_1854_4275" x="83.5136" y="32.3739" width="767.252" height="691.252" filterUnits="userSpaceOnUse" color-interpolation-filters="sRGB">
<feFlood flood-opacity="0" result="BackgroundImageFix"/>
<feColorMatrix in="SourceAlpha" type="matrix" values="0 0 0 0 0 0 0 0 0 0 0 0 0 0 0 0 0 0 127 0" result="hardAlpha"/>
<feMorphology radius="25.2087" operator="dilate" in="SourceAlpha" result="effect1_dropShadow_1854_4275"/>
<feOffset/>
<feGaussianBlur stdDeviation="35.2087"/>
<feComposite in2="hardAlpha" operator="out"/>
<feColorMatrix type="matrix" values="0 0 0 0 0.364706 0 0 0 0 0.819608 0 0 0 0 0.286275 0 0 0 0.247 0"/>
<feBlend mode="normal" in2="BackgroundImageFix" result="effect1_dropShadow_1854_4275"/>
<feBlend mode="normal" in="SourceGraphic" in2="effect1_dropShadow_1854_4275" result="shape"/>
</filter>
<filter id="filter1_f_1854_4275" x="89.1396" y="0" width="756" height="756" filterUnits="userSpaceOnUse" color-interpolation-filters="sRGB">
<feFlood flood-opacity="0" result="BackgroundImageFix"/>
<feBlend mode="normal" in="SourceGraphic" in2="BackgroundImageFix" result="shape"/>
<feGaussianBlur stdDeviation="64" result="effect1_foregroundBlur_1854_4275"/>
</filter>
<filter id="filter2_f_1854_4275" x="107.14" y="15.2871" width="720" height="720" filterUnits="userSpaceOnUse" color-interpolation-filters="sRGB">
<feFlood flood-opacity="0" result="BackgroundImageFix"/>
<feBlend mode="normal" in="SourceGraphic" in2="BackgroundImageFix" result="shape"/>
<feGaussianBlur stdDeviation="80" result="effect1_foregroundBlur_1854_4275"/>
</filter>
<linearGradient id="paint0_linear_1854_4275" x1="217.14" y1="128" x2="717.14" y2="628" gradientUnits="userSpaceOnUse">
<stop stop-color="#5DD149" stop-opacity="0.2"/>
<stop offset="0.5" stop-color="#5DD149" stop-opacity="0.1"/>
<stop offset="1" stop-opacity="0"/>
</linearGradient>
<linearGradient id="paint1_linear_1854_4275" x1="667.14" y1="578" x2="267.14" y2="178" gradientUnits="userSpaceOnUse">
<stop stop-color="#5DD149" stop-opacity="0.3"/>
<stop offset="0.5" stop-opacity="0"/>
<stop offset="1" stop-color="#5DD149" stop-opacity="0.2"/>
</linearGradient>
<linearGradient id="paint2_linear_1854_4275" x1="327.14" y1="217.787" x2="31609.9" y2="28024.7" gradientUnits="userSpaceOnUse">
<stop stop-color="#5DD149" stop-opacity="0.2"/>
<stop offset="0.5" stop-color="#5DD149"/>
<stop offset="1" stop-color="#5DD149" stop-opacity="0.2"/>
</linearGradient>
<linearGradient id="paint3_linear_1854_4275" x1="307.14" y1="215.287" x2="627.14" y2="535.287" gradientUnits="userSpaceOnUse">
<stop stop-color="#5DD149" stop-opacity="0.15"/>
<stop offset="0.5" stop-color="#020D00" stop-opacity="0.5"/>
<stop offset="1" stop-color="#5DD149" stop-opacity="0.1"/>
</linearGradient>
<linearGradient id="paint4_linear_1854_4275" x1="0" y1="159" x2="318" y2="159" gradientUnits="userSpaceOnUse">
<stop stop-opacity="0"/>
<stop offset="0.5" stop-color="#5DD149" stop-opacity="0.1"/>
<stop offset="1" stop-opacity="0"/>
</linearGradient>
<linearGradient id="paint5_linear_1854_4275" x1="0" y1="0.5" x2="64" y2="0.5" gradientUnits="userSpaceOnUse">
<stop stop-opacity="0"/>
<stop offset="1" stop-color="#5DD149" stop-opacity="0.5"/>
</linearGradient>
<linearGradient id="paint6_linear_1854_4275" x1="64" y1="0.5" x2="0" y2="0.5" gradientUnits="userSpaceOnUse">
<stop stop-opacity="0"/>
<stop offset="1" stop-color="#5DD149" stop-opacity="0.5"/>
</linearGradient>
<clipPath id="clip0_1854_4275">
<path d="M307.14 239.287C307.14 226.032 317.885 215.287 331.14 215.287H603.14C616.395 215.287 627.14 226.032 627.14 239.287V511.287C627.14 524.542 616.394 535.287 603.14 535.287H331.14C317.885 535.287 307.14 524.542 307.14 511.287V239.287Z" fill="white"/>
</clipPath>
</defs>
</svg>
