<svg width="286" height="129" viewBox="0 0 286 129" fill="none" xmlns="http://www.w3.org/2000/svg">
<path d="M20.96 94.8C17.4933 94.8 14.3467 93.92 11.52 92.16C8.74667 90.4 6.53333 88.0267 4.88 85.04C3.28 82 2.48 78.6133 2.48 74.88C2.48 71.0933 3.28 67.7067 4.88 64.72C6.53333 61.68 8.74667 59.28 11.52 57.52C14.3467 55.7067 17.4933 54.8 20.96 54.8C23.8933 54.8 26.48 55.44 28.72 56.72C31.0133 57.9467 32.8267 59.6533 34.16 61.84C35.4933 64.0267 36.16 66.5067 36.16 69.28V80.32C36.16 83.0933 35.4933 85.5733 34.16 87.76C32.88 89.9467 31.0933 91.68 28.8 92.96C26.5067 94.1867 23.8933 94.8 20.96 94.8ZM22.4 86.48C25.6533 86.48 28.2667 85.3867 30.24 83.2C32.2667 81.0133 33.28 78.2133 33.28 74.8C33.28 72.5067 32.8267 70.48 31.92 68.72C31.0133 66.96 29.7333 65.6 28.08 64.64C26.48 63.6267 24.5867 63.12 22.4 63.12C20.2667 63.12 18.3733 63.6267 16.72 64.64C15.12 65.6 13.84 66.96 12.88 68.72C11.9733 70.48 11.52 72.5067 11.52 74.8C11.52 77.0933 11.9733 79.12 12.88 80.88C13.84 82.64 15.12 84.0267 16.72 85.04C18.3733 86 20.2667 86.48 22.4 86.48ZM32.72 94V83.68L34.24 74.32L32.72 65.04V55.6H41.52V94H32.72ZM51.2863 94V36.4H60.0863V94H51.2863ZM87.48 94.8C83.7467 94.8 80.36 93.92 77.32 92.16C74.28 90.3467 71.8533 87.92 70.04 84.88C68.28 81.84 67.4 78.4533 67.4 74.72C67.4 70.9867 68.28 67.6267 70.04 64.64C71.8533 61.6533 74.28 59.28 77.32 57.52C80.36 55.7067 83.7467 54.8 87.48 54.8C91.2667 54.8 94.68 55.68 97.72 57.44C100.76 59.2 103.16 61.6 104.92 64.64C106.733 67.6267 107.64 70.9867 107.64 74.72C107.64 78.4533 106.733 81.84 104.92 84.88C103.16 87.92 100.76 90.3467 97.72 92.16C94.68 93.92 91.2667 94.8 87.48 94.8ZM87.48 86.32C89.6667 86.32 91.5867 85.84 93.24 84.88C94.9467 83.8667 96.2533 82.48 97.16 80.72C98.12 78.96 98.6 76.96 98.6 74.72C98.6 72.48 98.12 70.5067 97.16 68.8C96.2 67.0933 94.8933 65.76 93.24 64.8C91.5867 63.7867 89.6667 63.28 87.48 63.28C85.3467 63.28 83.4267 63.7867 81.72 64.8C80.0667 65.76 78.76 67.0933 77.8 68.8C76.8933 70.5067 76.44 72.48 76.44 74.72C76.44 76.96 76.8933 78.96 77.8 80.72C78.76 82.48 80.0667 83.8667 81.72 84.88C83.4267 85.84 85.3467 86.32 87.48 86.32ZM131.038 94.8C127.571 94.8 124.425 93.92 121.598 92.16C118.825 90.4 116.611 88.0267 114.958 85.04C113.358 82 112.558 78.6133 112.558 74.88C112.558 71.0933 113.358 67.7067 114.958 64.72C116.611 61.68 118.825 59.28 121.598 57.52C124.425 55.7067 127.571 54.8 131.038 54.8C133.971 54.8 136.558 55.44 138.798 56.72C141.091 57.9467 142.905 59.6533 144.238 61.84C145.571 64.0267 146.238 66.5067 146.238 69.28V80.32C146.238 83.0933 145.571 85.5733 144.238 87.76C142.958 89.9467 141.171 91.68 138.878 92.96C136.585 94.1867 133.971 94.8 131.038 94.8ZM132.478 86.48C135.731 86.48 138.345 85.3867 140.318 83.2C142.345 81.0133 143.358 78.2133 143.358 74.8C143.358 72.5067 142.905 70.48 141.998 68.72C141.091 66.96 139.811 65.6 138.158 64.64C136.558 63.6267 134.665 63.12 132.478 63.12C130.345 63.12 128.451 63.6267 126.798 64.64C125.198 65.6 123.918 66.96 122.958 68.72C122.051 70.48 121.598 72.5067 121.598 74.8C121.598 77.0933 122.051 79.12 122.958 80.88C123.918 82.64 125.198 84.0267 126.798 85.04C128.451 86 130.345 86.48 132.478 86.48ZM142.798 110V84.56L144.318 75.28L142.798 65.92V55.6H151.598V110H142.798ZM177.444 94.8C173.978 94.8 170.831 93.92 168.004 92.16C165.231 90.4 163.018 88.0267 161.364 85.04C159.764 82 158.964 78.6133 158.964 74.88C158.964 71.0933 159.764 67.7067 161.364 64.72C163.018 61.68 165.231 59.28 168.004 57.52C170.831 55.7067 173.978 54.8 177.444 54.8C180.378 54.8 182.964 55.44 185.204 56.72C187.498 57.9467 189.311 59.6533 190.644 61.84C191.978 64.0267 192.644 66.5067 192.644 69.28V80.32C192.644 83.0933 191.978 85.5733 190.644 87.76C189.364 89.9467 187.578 91.68 185.284 92.96C182.991 94.1867 180.378 94.8 177.444 94.8ZM178.884 86.48C182.138 86.48 184.751 85.3867 186.724 83.2C188.751 81.0133 189.764 78.2133 189.764 74.8C189.764 72.5067 189.311 70.48 188.404 68.72C187.498 66.96 186.218 65.6 184.564 64.64C182.964 63.6267 181.071 63.12 178.884 63.12C176.751 63.12 174.858 63.6267 173.204 64.64C171.604 65.6 170.324 66.96 169.364 68.72C168.458 70.48 168.004 72.5067 168.004 74.8C168.004 77.0933 168.458 79.12 169.364 80.88C170.324 82.64 171.604 84.0267 173.204 85.04C174.858 86 176.751 86.48 178.884 86.48ZM189.204 94V83.68L190.724 74.32L189.204 65.04V55.6H198.004V94H189.204ZM214.491 94.8C212.784 94.8 211.371 94.24 210.251 93.12C209.184 91.9467 208.651 90.5333 208.651 88.88C208.651 87.1733 209.184 85.76 210.251 84.64C211.371 83.52 212.784 82.96 214.491 82.96C216.197 82.96 217.584 83.52 218.651 84.64C219.771 85.76 220.331 87.1733 220.331 88.88C220.331 90.5333 219.771 91.9467 218.651 93.12C217.584 94.24 216.197 94.8 214.491 94.8Z" fill="#D9F5DE"/>
<path d="M240.96 95.425C237.493 95.425 234.347 94.545 231.52 92.785C228.747 91.025 226.533 88.6517 224.88 85.665C223.28 82.625 222.48 79.2383 222.48 75.505C222.48 71.7183 223.28 68.3317 224.88 65.345C226.533 62.305 228.747 59.905 231.52 58.145C234.347 56.3317 237.493 55.425 240.96 55.425C243.893 55.425 246.48 56.065 248.72 57.345C251.013 58.5717 252.827 60.2783 254.16 62.465C255.493 64.6517 256.16 67.1317 256.16 69.905V80.945C256.16 83.7183 255.493 86.1983 254.16 88.385C252.88 90.5717 251.093 92.305 248.8 93.585C246.507 94.8117 243.893 95.425 240.96 95.425ZM242.4 87.105C245.653 87.105 248.267 86.0117 250.24 83.825C252.267 81.6383 253.28 78.8383 253.28 75.425C253.28 73.1317 252.827 71.105 251.92 69.345C251.013 67.585 249.733 66.225 248.08 65.265C246.48 64.2517 244.587 63.745 242.4 63.745C240.267 63.745 238.373 64.2517 236.72 65.265C235.12 66.225 233.84 67.585 232.88 69.345C231.973 71.105 231.52 73.1317 231.52 75.425C231.52 77.7183 231.973 79.745 232.88 81.505C233.84 83.265 235.12 84.6517 236.72 85.665C238.373 86.625 240.267 87.105 242.4 87.105ZM252.72 94.625V84.305L254.24 74.945L252.72 65.665V56.225H261.52V94.625H252.72ZM271.366 94.625V56.225H280.166V94.625H271.366ZM275.766 49.185C274.273 49.185 273.02 48.6783 272.006 47.665C271.046 46.6517 270.566 45.3983 270.566 43.905C270.566 42.4117 271.046 41.1583 272.006 40.145C273.02 39.1317 274.273 38.625 275.766 38.625C277.313 38.625 278.566 39.1317 279.526 40.145C280.486 41.1583 280.966 42.4117 280.966 43.905C280.966 45.3983 280.486 46.6517 279.526 47.665C278.566 48.6783 277.313 49.185 275.766 49.185Z" fill="#5DD149"/>
</svg>
