<svg width="64" height="64" viewBox="0 0 64 64" fill="none" xmlns="http://www.w3.org/2000/svg">
<mask id="path-1-inside-1_1854_4358" fill="white">
<path d="M0 16C0 7.16344 7.16344 0 16 0H48C56.8366 0 64 7.16344 64 16V48C64 56.8366 56.8366 64 48 64H16C7.16344 64 0 56.8366 0 48V16Z"/>
</mask>
<path d="M0 16C0 7.16344 7.16344 0 16 0H48C56.8366 0 64 7.16344 64 16V48C64 56.8366 56.8366 64 48 64H16C7.16344 64 0 56.8366 0 48V16Z" fill="url(#paint0_linear_1854_4358)"/>
<path d="M16 0V1H48V0V-1H16V0ZM64 16H63V48H64H65V16H64ZM48 64V63H16V64V65H48V64ZM0 48H1V16H0H-1V48H0ZM16 64V63C7.71573 63 1 56.2843 1 48H0H-1C-1 57.3888 6.61116 65 16 65V64ZM64 48H63C63 56.2843 56.2843 63 48 63V64V65C57.3888 65 65 57.3888 65 48H64ZM48 0V1C56.2843 1 63 7.71573 63 16H64H65C65 6.61116 57.3888 -1 48 -1V0ZM16 0V-1C6.61116 -1 -1 6.61116 -1 16H0H1C1 7.71573 7.71573 1 16 1V0Z" fill="#5DD149" fill-opacity="0.3" mask="url(#path-1-inside-1_1854_4358)"/>
<path d="M42.6693 33.3333C42.6693 39.9999 38.0026 43.3333 32.4559 45.2666C32.1655 45.365 31.85 45.3603 31.5626 45.2533C26.0026 43.3333 21.3359 39.9999 21.3359 33.3333V23.9999C21.3359 23.6463 21.4764 23.3072 21.7265 23.0571C21.9765 22.8071 22.3156 22.6666 22.6693 22.6666C25.3359 22.6666 28.6693 21.0666 30.9893 19.0399C31.2717 18.7986 31.6311 18.666 32.0026 18.666C32.3741 18.666 32.7335 18.7986 33.0159 19.0399C35.3493 21.0799 38.6693 22.6666 41.3359 22.6666C41.6896 22.6666 42.0287 22.8071 42.2787 23.0571C42.5288 23.3072 42.6693 23.6463 42.6693 23.9999V33.3333Z" stroke="#5DD149" stroke-width="2.66667" stroke-linecap="round" stroke-linejoin="round"/>
<defs>
<linearGradient id="paint0_linear_1854_4358" x1="0" y1="0" x2="64" y2="64" gradientUnits="userSpaceOnUse">
<stop stop-color="#5DD149" stop-opacity="0.2"/>
<stop offset="1" stop-color="#5DD149" stop-opacity="0.05"/>
</linearGradient>
</defs>
</svg>
