<svg width="64" height="64" viewBox="0 0 64 64" fill="none" xmlns="http://www.w3.org/2000/svg">
<mask id="path-1-inside-1_1854_4368" fill="white">
<path d="M0 16C0 7.16344 7.16344 0 16 0H48C56.8366 0 64 7.16344 64 16V48C64 56.8366 56.8366 64 48 64H16C7.16344 64 0 56.8366 0 48V16Z"/>
</mask>
<path d="M0 16C0 7.16344 7.16344 0 16 0H48C56.8366 0 64 7.16344 64 16V48C64 56.8366 56.8366 64 48 64H16C7.16344 64 0 56.8366 0 48V16Z" fill="url(#paint0_linear_1854_4368)"/>
<path d="M16 0V1H48V0V-1H16V0ZM64 16H63V48H64H65V16H64ZM48 64V63H16V64V65H48V64ZM0 48H1V16H0H-1V48H0ZM16 64V63C7.71573 63 1 56.2843 1 48H0H-1C-1 57.3888 6.61116 65 16 65V64ZM64 48H63C63 56.2843 56.2843 63 48 63V64V65C57.3888 65 65 57.3888 65 48H64ZM48 0V1C56.2843 1 63 7.71573 63 16H64H65C65 6.61116 57.3888 -1 48 -1V0ZM16 0V-1C6.61116 -1 -1 6.61116 -1 16H0H1C1 7.71573 7.71573 1 16 1V0Z" fill="#5DD149" fill-opacity="0.3" mask="url(#path-1-inside-1_1854_4368)"/>
<path d="M37.3307 44V41.3333C37.3307 39.9188 36.7688 38.5623 35.7686 37.5621C34.7684 36.5619 33.4119 36 31.9974 36H23.9974C22.5829 36 21.2264 36.5619 20.2262 37.5621C19.226 38.5623 18.6641 39.9188 18.6641 41.3333V44" stroke="#5DD149" stroke-width="2.66667" stroke-linecap="round" stroke-linejoin="round"/>
<path d="M37.3359 20.1699C38.4796 20.4664 39.4925 21.1343 40.2155 22.0687C40.9386 23.0031 41.3309 24.1511 41.3309 25.3326C41.3309 26.5141 40.9386 27.6621 40.2155 28.5965C39.4925 29.5309 38.4796 30.1988 37.3359 30.4953" stroke="#5DD149" stroke-width="2.66667" stroke-linecap="round" stroke-linejoin="round"/>
<path d="M45.3359 44.0005V41.3338C45.3351 40.1521 44.9417 39.0042 44.2178 38.0702C43.4938 37.1363 42.4801 36.4693 41.3359 36.1738" stroke="#5DD149" stroke-width="2.66667" stroke-linecap="round" stroke-linejoin="round"/>
<path d="M27.9974 30.6667C30.9429 30.6667 33.3307 28.2789 33.3307 25.3333C33.3307 22.3878 30.9429 20 27.9974 20C25.0519 20 22.6641 22.3878 22.6641 25.3333C22.6641 28.2789 25.0519 30.6667 27.9974 30.6667Z" stroke="#5DD149" stroke-width="2.66667" stroke-linecap="round" stroke-linejoin="round"/>
<defs>
<linearGradient id="paint0_linear_1854_4368" x1="0" y1="0" x2="64" y2="64" gradientUnits="userSpaceOnUse">
<stop stop-color="#5DD149" stop-opacity="0.2"/>
<stop offset="1" stop-color="#5DD149" stop-opacity="0.05"/>
</linearGradient>
</defs>
</svg>
