<svg width="64" height="64" viewBox="0 0 64 64" fill="none" xmlns="http://www.w3.org/2000/svg">
<mask id="path-1-inside-1_1854_4390" fill="white">
<path d="M0 16C0 7.16344 7.16344 0 16 0H48C56.8366 0 64 7.16344 64 16V48C64 56.8366 56.8366 64 48 64H16C7.16344 64 0 56.8366 0 48V16Z"/>
</mask>
<path d="M0 16C0 7.16344 7.16344 0 16 0H48C56.8366 0 64 7.16344 64 16V48C64 56.8366 56.8366 64 48 64H16C7.16344 64 0 56.8366 0 48V16Z" fill="url(#paint0_linear_1854_4390)"/>
<path d="M16 0V1H48V0V-1H16V0ZM64 16H63V48H64H65V16H64ZM48 64V63H16V64V65H48V64ZM0 48H1V16H0H-1V48H0ZM16 64V63C7.71573 63 1 56.2843 1 48H0H-1C-1 57.3888 6.61116 65 16 65V64ZM64 48H63C63 56.2843 56.2843 63 48 63V64V65C57.3888 65 65 57.3888 65 48H64ZM48 0V1C56.2843 1 63 7.71573 63 16H64H65C65 6.61116 57.3888 -1 48 -1V0ZM16 0V-1C6.61116 -1 -1 6.61116 -1 16H0H1C1 7.71573 7.71573 1 16 1V0Z" fill="#5DD149" fill-opacity="0.3" mask="url(#path-1-inside-1_1854_4390)"/>
<path d="M41.3333 30.666H22.6667C21.1939 30.666 20 31.8599 20 33.3327V42.666C20 44.1388 21.1939 45.3327 22.6667 45.3327H41.3333C42.8061 45.3327 44 44.1388 44 42.666V33.3327C44 31.8599 42.8061 30.666 41.3333 30.666Z" stroke="#5DD149" stroke-width="2.66667" stroke-linecap="round" stroke-linejoin="round"/>
<path d="M25.3359 30.666V25.3327C25.3359 23.5646 26.0383 21.8689 27.2886 20.6186C28.5388 19.3684 30.2345 18.666 32.0026 18.666C33.7707 18.666 35.4664 19.3684 36.7166 20.6186C37.9669 21.8689 38.6693 23.5646 38.6693 25.3327V30.666" stroke="#5DD149" stroke-width="2.66667" stroke-linecap="round" stroke-linejoin="round"/>
<defs>
<linearGradient id="paint0_linear_1854_4390" x1="0" y1="0" x2="64" y2="64" gradientUnits="userSpaceOnUse">
<stop stop-color="#5DD149" stop-opacity="0.2"/>
<stop offset="1" stop-color="#5DD149" stop-opacity="0.05"/>
</linearGradient>
</defs>
</svg>
