<svg width="64" height="64" viewBox="0 0 64 64" fill="none" xmlns="http://www.w3.org/2000/svg">
<mask id="path-1-inside-1_1854_4380" fill="white">
<path d="M0 16C0 7.16344 7.16344 0 16 0H48C56.8366 0 64 7.16344 64 16V48C64 56.8366 56.8366 64 48 64H16C7.16344 64 0 56.8366 0 48V16Z"/>
</mask>
<path d="M0 16C0 7.16344 7.16344 0 16 0H48C56.8366 0 64 7.16344 64 16V48C64 56.8366 56.8366 64 48 64H16C7.16344 64 0 56.8366 0 48V16Z" fill="url(#paint0_linear_1854_4380)"/>
<path d="M16 0V1H48V0V-1H16V0ZM64 16H63V48H64H65V16H64ZM48 64V63H16V64V65H48V64ZM0 48H1V16H0H-1V48H0ZM16 64V63C7.71573 63 1 56.2843 1 48H0H-1C-1 57.3888 6.61116 65 16 65V64ZM64 48H63C63 56.2843 56.2843 63 48 63V64V65C57.3888 65 65 57.3888 65 48H64ZM48 0V1C56.2843 1 63 7.71573 63 16H64H65C65 6.61116 57.3888 -1 48 -1V0ZM16 0V-1C6.61116 -1 -1 6.61116 -1 16H0H1C1 7.71573 7.71573 1 16 1V0Z" fill="#5DD149" fill-opacity="0.3" mask="url(#path-1-inside-1_1854_4380)"/>
<path d="M21.3301 34.6675C21.0778 34.6684 20.8304 34.5976 20.6167 34.4635C20.403 34.3294 20.2317 34.1373 20.1228 33.9097C20.0139 33.6821 19.9718 33.4283 20.0014 33.1777C20.031 32.9272 20.1311 32.6901 20.2901 32.4942L33.4901 18.8942C33.5891 18.7799 33.724 18.7027 33.8727 18.6752C34.0214 18.6477 34.175 18.6716 34.3084 18.7429C34.4417 18.8142 34.5468 18.9287 34.6065 19.0677C34.6662 19.2066 34.6768 19.3617 34.6367 19.5075L32.0767 27.5342C32.0012 27.7362 31.9759 27.9536 32.0029 28.1675C32.0298 28.3815 32.1083 28.5858 32.2315 28.7628C32.3548 28.9398 32.5191 29.0842 32.7104 29.1837C32.9018 29.2833 33.1144 29.3349 33.3301 29.3342H42.6634C42.9157 29.3333 43.1631 29.4041 43.3768 29.5382C43.5905 29.6724 43.7618 29.8644 43.8707 30.092C43.9796 30.3196 44.0217 30.5734 43.9921 30.824C43.9625 31.0746 43.8624 31.3116 43.7034 31.5075L30.5034 45.1075C30.4044 45.2218 30.2695 45.2991 30.1208 45.3266C29.9721 45.3541 29.8184 45.3302 29.6851 45.2589C29.5518 45.1875 29.4466 45.073 29.387 44.9341C29.3273 44.7951 29.3166 44.64 29.3567 44.4942L31.9167 36.4675C31.9922 36.2655 32.0176 36.0482 31.9906 35.8342C31.9637 35.6202 31.8852 35.416 31.7619 35.239C31.6387 35.062 31.4744 34.9175 31.283 34.818C31.0917 34.7185 30.8791 34.6668 30.6634 34.6675H21.3301Z" stroke="#5DD149" stroke-width="2.66667" stroke-linecap="round" stroke-linejoin="round"/>
<defs>
<linearGradient id="paint0_linear_1854_4380" x1="0" y1="0" x2="64" y2="64" gradientUnits="userSpaceOnUse">
<stop stop-color="#5DD149" stop-opacity="0.2"/>
<stop offset="1" stop-color="#5DD149" stop-opacity="0.05"/>
</linearGradient>
</defs>
</svg>
