<svg width="48" height="48" viewBox="0 0 48 48" fill="none" xmlns="http://www.w3.org/2000/svg">
<path d="M0 16.4C0 7.34253 7.34253 0 16.4 0H31.6C40.6575 0 48 7.34253 48 16.4V31.6C48 40.6575 40.6575 48 31.6 48H16.4C7.34253 48 0 40.6575 0 31.6V16.4Z" fill="#5DD149" fill-opacity="0.1"/>
<mask id="path-2-inside-1_294_1732" fill="white">
<path d="M0 16.4C0 7.34253 7.34253 0 16.4 0H31.6C40.6575 0 48 7.34253 48 16.4V31.6C48 40.6575 40.6575 48 31.6 48H16.4C7.34253 48 0 40.6575 0 31.6V16.4Z"/>
</mask>
<path d="M16.4 0V1H31.6V0V-1H16.4V0ZM48 16.4H47V31.6H48H49V16.4H48ZM31.6 48V47H16.4V48V49H31.6V48ZM0 31.6H1V16.4H0H-1V31.6H0ZM16.4 48V47C7.89481 47 1 40.1052 1 31.6H0H-1C-1 41.2098 6.79024 49 16.4 49V48ZM48 31.6H47C47 40.1052 40.1052 47 31.6 47V48V49C41.2098 49 49 41.2098 49 31.6H48ZM31.6 0V1C40.1052 1 47 7.89482 47 16.4H48H49C49 6.79025 41.2098 -1 31.6 -1V0ZM16.4 0V-1C6.79025 -1 -1 6.79024 -1 16.4H0H1C1 7.89481 7.89482 1 16.4 1V0Z" fill="#5DD149" fill-opacity="0.3" mask="url(#path-2-inside-1_294_1732)"/>
<path d="M27.3526 15.1184C26.6114 15.0371 25.8665 14.9976 25.1213 15.0001C22.6503 15.0001 21.1149 16.6318 21.1149 19.259V21.0425H19.0392C18.8364 21.0423 18.672 21.2127 18.6719 21.423V24.3572C18.6717 24.5675 18.836 24.738 19.0388 24.7381H21.1149V30.6191C21.1147 30.8293 21.279 30.9999 21.4818 31H24.4045C24.6073 31.0001 24.7717 30.8298 24.7718 30.6195V24.7381H26.8411C27.0257 24.7381 27.1816 24.5961 27.2056 24.4063L27.5708 21.4725C27.597 21.264 27.4552 21.0729 27.2541 21.0457C27.2383 21.0436 27.2223 21.0425 27.2063 21.0425H24.7718V19.5499C24.7718 18.8111 24.9153 18.5023 25.8064 18.5023L27.3045 18.5016C27.5073 18.5017 27.6717 18.3313 27.6719 18.121V15.4964C27.6719 15.3052 27.5354 15.1435 27.3526 15.1184ZM26.9372 17.7397L25.8064 17.7404C24.2208 17.7404 24.0371 18.7732 24.0371 19.5499V21.4235C24.0371 21.6337 24.2013 21.8043 24.4041 21.8044H26.7887L26.5182 23.9762H24.4045C24.2017 23.9761 24.0373 24.1465 24.0371 24.3568V30.2381H21.8496V24.3572C21.8497 24.1469 21.6854 23.9764 21.4827 23.9762H19.4066V21.8044H21.4822C21.685 21.8045 21.8494 21.6341 21.8496 21.4239V19.259C21.8496 17.0693 23.0728 15.762 25.1213 15.762C25.8624 15.762 26.5318 15.8037 26.9372 15.8401V17.7397Z" fill="#5DD149"/>
</svg>
