<svg width="48" height="48" viewBox="0 0 48 48" fill="none" xmlns="http://www.w3.org/2000/svg">
<mask id="path-1-inside-1_1854_4643" fill="white">
<path d="M0 16.4C0 7.34253 7.34253 0 16.4 0H31.6C40.6575 0 48 7.34253 48 16.4V31.6C48 40.6575 40.6575 48 31.6 48H16.4C7.34253 48 0 40.6575 0 31.6V16.4Z"/>
</mask>
<path d="M0 16.4C0 7.34253 7.34253 0 16.4 0H31.6C40.6575 0 48 7.34253 48 16.4V31.6C48 40.6575 40.6575 48 31.6 48H16.4C7.34253 48 0 40.6575 0 31.6V16.4Z" fill="#5DD149" fill-opacity="0.1"/>
<path d="M16.4 0V1H31.6V0V-1H16.4V0ZM48 16.4H47V31.6H48H49V16.4H48ZM31.6 48V47H16.4V48V49H31.6V48ZM0 31.6H1V16.4H0H-1V31.6H0ZM16.4 48V47C7.89481 47 1 40.1052 1 31.6H0H-1C-1 41.2098 6.79024 49 16.4 49V48ZM48 31.6H47C47 40.1052 40.1052 47 31.6 47V48V49C41.2098 49 49 41.2098 49 31.6H48ZM31.6 0V1C40.1052 1 47 7.89482 47 16.4H48H49C49 6.79025 41.2098 -1 31.6 -1V0ZM16.4 0V-1C6.79025 -1 -1 6.79024 -1 16.4H0H1C1 7.89481 7.89482 1 16.4 1V0Z" fill="#5DD149" fill-opacity="0.3" mask="url(#path-1-inside-1_1854_4643)"/>
<path d="M26.1106 32.0711C26.1422 32.15 26.1973 32.2174 26.2683 32.2641C26.3393 32.3108 26.4229 32.3347 26.5079 32.3325C26.5929 32.3303 26.6752 32.3022 26.7438 32.2519C26.8123 32.2016 26.8638 32.1316 26.8914 32.0511L32.3081 16.2178C32.3347 16.144 32.3398 16.0641 32.3227 15.9874C32.3057 15.9108 32.2671 15.8406 32.2116 15.7851C32.1561 15.7296 32.0859 15.6911 32.0093 15.674C31.9326 15.6569 31.8527 15.662 31.7789 15.6886L15.9456 21.1053C15.8651 21.1329 15.7951 21.1844 15.7448 21.253C15.6945 21.3215 15.6664 21.4038 15.6642 21.4888C15.662 21.5738 15.6859 21.6574 15.7326 21.7284C15.7793 21.7994 15.8467 21.8545 15.9256 21.8861L22.5339 24.5361C22.7428 24.6198 22.9326 24.7449 23.0919 24.9038C23.2511 25.0628 23.3766 25.2524 23.4606 25.4611L26.1106 32.0711Z" stroke="#5DD149" stroke-width="1.66667" stroke-linecap="round" stroke-linejoin="round"/>
<path d="M32.2104 15.7891L23.0938 24.9049" stroke="#5DD149" stroke-width="1.66667" stroke-linecap="round" stroke-linejoin="round"/>
</svg>
