<svg width="48" height="48" viewBox="0 0 48 48" fill="none" xmlns="http://www.w3.org/2000/svg">
<path d="M0 16.4C0 7.34253 7.34253 0 16.4 0H31.6C40.6575 0 48 7.34253 48 16.4V31.6C48 40.6575 40.6575 48 31.6 48H16.4C7.34253 48 0 40.6575 0 31.6V16.4Z" fill="#5DD149" fill-opacity="0.1"/>
<mask id="path-2-inside-1_294_1742" fill="white">
<path d="M0 16.4C0 7.34253 7.34253 0 16.4 0H31.6C40.6575 0 48 7.34253 48 16.4V31.6C48 40.6575 40.6575 48 31.6 48H16.4C7.34253 48 0 40.6575 0 31.6V16.4Z"/>
</mask>
<path d="M16.4 0V1H31.6V0V-1H16.4V0ZM48 16.4H47V31.6H48H49V16.4H48ZM31.6 48V47H16.4V48V49H31.6V48ZM0 31.6H1V16.4H0H-1V31.6H0ZM16.4 48V47C7.89481 47 1 40.1052 1 31.6H0H-1C-1 41.2098 6.79024 49 16.4 49V48ZM48 31.6H47C47 40.1052 40.1052 47 31.6 47V48V49C41.2098 49 49 41.2098 49 31.6H48ZM31.6 0V1C40.1052 1 47 7.89482 47 16.4H48H49C49 6.79025 41.2098 -1 31.6 -1V0ZM16.4 0V-1C6.79025 -1 -1 6.79024 -1 16.4H0H1C1 7.89481 7.89482 1 16.4 1V0Z" fill="#5DD149" fill-opacity="0.3" mask="url(#path-2-inside-1_294_1742)"/>
<path d="M19.5222 21.6034C19.522 21.6034 19.5223 21.6034 19.5222 21.6034H16.3862C16.1698 21.6032 15.9944 21.7821 15.9942 22.0027C15.9942 22.0026 15.9942 22.0029 15.9942 22.0027V31.6001C15.9941 31.8209 16.1694 31.9999 16.3857 32C16.3856 32 16.3859 32 16.3857 32H19.5217C19.7381 32.0001 19.9135 31.8213 19.9136 31.6006C19.9136 31.6004 19.9136 31.6007 19.9136 31.6006V22.0032C19.9138 21.7825 19.7385 21.6035 19.5222 21.6034ZM19.1298 31.2003H16.7781V22.4031H19.1298V31.2003ZM27.7525 21.6034C26.9021 21.6034 26.0755 21.8897 25.4008 22.4179V22.0032C25.401 21.7825 25.2257 21.6035 25.0094 21.6034C25.0092 21.6034 25.0095 21.6034 25.0094 21.6034H21.8734C21.657 21.6032 21.4816 21.7821 21.4814 22.0027C21.4814 22.0026 21.4814 22.0029 21.4814 22.0027V31.6001C21.4813 31.8209 21.6566 31.9999 21.8729 32C21.8728 32 21.8731 32 21.8729 32H25.0089C25.2252 32.0001 25.4007 31.8213 25.4008 31.6006C25.4008 31.6004 25.4008 31.6007 25.4008 31.6006V27.2016C25.4008 26.539 25.9272 26.0019 26.5766 26.0019C27.226 26.0019 27.7525 26.539 27.7525 27.2016V31.6001C27.7523 31.8209 27.9276 31.9999 28.144 32C28.1438 32 28.1441 32 28.144 32H31.2799C31.4963 32.0001 31.6717 31.8213 31.6719 31.6006C31.6719 31.6004 31.6719 31.6007 31.6719 31.6006V25.6021C31.6693 23.3947 29.916 21.606 27.7525 21.6034ZM30.888 31.2003H28.5363V27.2016C28.5363 26.0973 27.659 25.2022 26.5766 25.2022C25.4943 25.2022 24.6169 26.0973 24.6169 27.2016V31.2003H22.2653V22.4031H24.6169V23.3653C24.6169 23.5352 24.7223 23.6865 24.8796 23.7425C25.0364 23.8002 25.2119 23.7489 25.3151 23.6152C26.3832 22.2342 28.3464 21.9981 29.7 23.0878C30.4539 23.6949 30.8922 24.6222 30.888 25.6021V31.2003ZM18.2424 16.0066C18.1502 16.0001 18.0577 15.9996 17.9654 16.0052C16.7823 15.9227 15.7577 16.8344 15.6769 18.0414C15.6737 18.09 15.6721 18.1386 15.672 18.1873C15.6618 19.3841 16.6044 20.3627 17.7775 20.3731C17.8254 20.3735 17.8732 20.3722 17.921 20.3693H17.9432C19.1241 20.4536 20.1483 19.5453 20.2309 18.3406C20.3135 17.1359 19.4232 16.0909 18.2424 16.0066ZM18.2153 19.5719C18.1248 19.5804 18.0336 19.5797 17.9432 19.5696H17.921C17.1715 19.6284 16.5173 19.0562 16.4597 18.2915C16.4021 17.527 16.9629 16.8594 17.7124 16.8007C17.7967 16.7941 17.8814 16.7955 17.9654 16.8049C18.7143 16.7345 19.3774 17.2969 19.4464 18.0609C19.5154 18.825 18.9643 19.5015 18.2153 19.5719Z" fill="#5DD149"/>
</svg>
