<svg width="48" height="48" viewBox="0 0 48 48" fill="none" xmlns="http://www.w3.org/2000/svg">
<path d="M0 16.4C0 7.34253 7.34253 0 16.4 0H31.6C40.6575 0 48 7.34253 48 16.4V31.6C48 40.6575 40.6575 48 31.6 48H16.4C7.34253 48 0 40.6575 0 31.6V16.4Z" fill="#5DD149" fill-opacity="0.1"/>
<mask id="path-2-inside-1_294_1752" fill="white">
<path d="M0 16.4C0 7.34253 7.34253 0 16.4 0H31.6C40.6575 0 48 7.34253 48 16.4V31.6C48 40.6575 40.6575 48 31.6 48H16.4C7.34253 48 0 40.6575 0 31.6V16.4Z"/>
</mask>
<path d="M16.4 0V1H31.6V0V-1H16.4V0ZM48 16.4H47V31.6H48H49V16.4H48ZM31.6 48V47H16.4V48V49H31.6V48ZM0 31.6H1V16.4H0H-1V31.6H0ZM16.4 48V47C7.89481 47 1 40.1052 1 31.6H0H-1C-1 41.2098 6.79024 49 16.4 49V48ZM48 31.6H47C47 40.1052 40.1052 47 31.6 47V48V49C41.2098 49 49 41.2098 49 31.6H48ZM31.6 0V1C40.1052 1 47 7.89482 47 16.4H48H49C49 6.79025 41.2098 -1 31.6 -1V0ZM16.4 0V-1C6.79025 -1 -1 6.79024 -1 16.4H0H1C1 7.89481 7.89482 1 16.4 1V0Z" fill="#5DD149" fill-opacity="0.3" mask="url(#path-2-inside-1_294_1752)"/>
<g clip-path="url(#clip0_294_1752)">
<path d="M27.1719 31.5H20.1719C19.111 31.5 18.0936 31.0786 17.3434 30.3284C16.5933 29.5783 16.1719 28.5609 16.1719 27.5V20.5C16.1719 19.4391 16.5933 18.4217 17.3434 17.6716C18.0936 16.9214 19.111 16.5 20.1719 16.5H27.1719C28.2327 16.5 29.2502 16.9214 30.0003 17.6716C30.7504 18.4217 31.1719 19.4391 31.1719 20.5V27.5C31.1719 28.5609 30.7504 29.5783 30.0003 30.3284C29.2502 31.0786 28.2327 31.5 27.1719 31.5Z" stroke="#5DD149" stroke-miterlimit="10"/>
<path d="M23.6719 27.5C25.6049 27.5 27.1719 25.933 27.1719 24C27.1719 22.067 25.6049 20.5 23.6719 20.5C21.7389 20.5 20.1719 22.067 20.1719 24C20.1719 25.933 21.7389 27.5 23.6719 27.5Z" stroke="#5DD149" stroke-miterlimit="10"/>
<path d="M28.1719 20C28.448 20 28.6719 19.7761 28.6719 19.5C28.6719 19.2239 28.448 19 28.1719 19C27.8957 19 27.6719 19.2239 27.6719 19.5C27.6719 19.7761 27.8957 20 28.1719 20Z" stroke="#5DD149" stroke-miterlimit="10"/>
</g>
<defs>
<clipPath id="clip0_294_1752">
<rect width="16" height="16" fill="white" transform="translate(15.6719 16)"/>
</clipPath>
</defs>
</svg>
