<svg width="48" height="48" viewBox="0 0 48 48" fill="none" xmlns="http://www.w3.org/2000/svg">
<mask id="path-1-inside-1_1854_4647" fill="white">
<path d="M0 16.4C0 7.34253 7.34253 0 16.4 0H31.6C40.6575 0 48 7.34253 48 16.4V31.6C48 40.6575 40.6575 48 31.6 48H16.4C7.34253 48 0 40.6575 0 31.6V16.4Z"/>
</mask>
<path d="M0 16.4C0 7.34253 7.34253 0 16.4 0H31.6C40.6575 0 48 7.34253 48 16.4V31.6C48 40.6575 40.6575 48 31.6 48H16.4C7.34253 48 0 40.6575 0 31.6V16.4Z" fill="#5DD149" fill-opacity="0.1"/>
<path d="M16.4 0V1H31.6V0V-1H16.4V0ZM48 16.4H47V31.6H48H49V16.4H48ZM31.6 48V47H16.4V48V49H31.6V48ZM0 31.6H1V16.4H0H-1V31.6H0ZM16.4 48V47C7.89481 47 1 40.1052 1 31.6H0H-1C-1 41.2098 6.79024 49 16.4 49V48ZM48 31.6H47C47 40.1052 40.1052 47 31.6 47V48V49C41.2098 49 49 41.2098 49 31.6H48ZM31.6 0V1C40.1052 1 47 7.89482 47 16.4H48H49C49 6.79025 41.2098 -1 31.6 -1V0ZM16.4 0V-1C6.79025 -1 -1 6.79024 -1 16.4H0H1C1 7.89481 7.89482 1 16.4 1V0Z" fill="#5DD149" fill-opacity="0.3" mask="url(#path-1-inside-1_1854_4647)"/>
<path d="M26.4966 32.3346V29.0013C26.6125 27.9574 26.3132 26.9097 25.6632 26.0846C28.1632 26.0846 30.6632 24.418 30.6632 21.5013C30.7299 20.4596 30.4382 19.4346 29.8299 18.5846C30.0632 17.6263 30.0632 16.6263 29.8299 15.668C29.8299 15.668 28.9966 15.668 27.3299 16.918C25.1299 16.5013 22.8632 16.5013 20.6632 16.918C18.9966 15.668 18.1632 15.668 18.1632 15.668C17.9132 16.6263 17.9132 17.6263 18.1632 18.5846C17.5565 19.4312 17.262 20.462 17.3299 21.5013C17.3299 24.418 19.8299 26.0846 22.3299 26.0846C22.0049 26.493 21.7632 26.9596 21.6216 27.4596C21.4799 27.9596 21.4382 28.4846 21.4966 29.0013V32.3346" stroke="#5DD149" stroke-width="1.66667" stroke-linecap="round" stroke-linejoin="round"/>
<path d="M21.4974 28.9987C17.7391 30.6654 17.3307 27.332 15.6641 27.332" stroke="#5DD149" stroke-width="1.66667" stroke-linecap="round" stroke-linejoin="round"/>
</svg>
